%TF.GenerationSoftware,Altium Limited,Altium Designer,25.3.3 (18)*%
G04 Layer_Physical_Order=1*
G04 Layer_Color=255*
%FSLAX45Y45*%
%MOMM*%
%TF.SameCoordinates,F76437CA-266C-4EF0-AB4E-77791E4FF534*%
%TF.FilePolarity,Positive*%
%TF.FileFunction,Copper,L1,Top,Signal*%
%TF.Part,Single*%
G01*
G75*
%TA.AperFunction,SMDPad,CuDef*%
G04:AMPARAMS|DCode=10|XSize=0.55mm|YSize=0.5mm|CornerRadius=0.0625mm|HoleSize=0mm|Usage=FLASHONLY|Rotation=90.000|XOffset=0mm|YOffset=0mm|HoleType=Round|Shape=RoundedRectangle|*
%AMROUNDEDRECTD10*
21,1,0.55000,0.37500,0,0,90.0*
21,1,0.42500,0.50000,0,0,90.0*
1,1,0.12500,0.18750,0.21250*
1,1,0.12500,0.18750,-0.21250*
1,1,0.12500,-0.18750,-0.21250*
1,1,0.12500,-0.18750,0.21250*
%
%ADD10ROUNDEDRECTD10*%
%ADD11R,0.57583X1.40712*%
G04:AMPARAMS|DCode=12|XSize=1.40712mm|YSize=0.57583mm|CornerRadius=0.28791mm|HoleSize=0mm|Usage=FLASHONLY|Rotation=90.000|XOffset=0mm|YOffset=0mm|HoleType=Round|Shape=RoundedRectangle|*
%AMROUNDEDRECTD12*
21,1,1.40712,0.00000,0,0,90.0*
21,1,0.83129,0.57583,0,0,90.0*
1,1,0.57583,0.00000,0.41565*
1,1,0.57583,0.00000,-0.41565*
1,1,0.57583,0.00000,-0.41565*
1,1,0.57583,0.00000,0.41565*
%
%ADD12ROUNDEDRECTD12*%
%ADD13R,1.20000X1.40000*%
G04:AMPARAMS|DCode=14|XSize=0.55mm|YSize=0.5mm|CornerRadius=0.0625mm|HoleSize=0mm|Usage=FLASHONLY|Rotation=180.000|XOffset=0mm|YOffset=0mm|HoleType=Round|Shape=RoundedRectangle|*
%AMROUNDEDRECTD14*
21,1,0.55000,0.37500,0,0,180.0*
21,1,0.42500,0.50000,0,0,180.0*
1,1,0.12500,-0.21250,0.18750*
1,1,0.12500,0.21250,0.18750*
1,1,0.12500,0.21250,-0.18750*
1,1,0.12500,-0.21250,-0.18750*
%
%ADD14ROUNDEDRECTD14*%
%ADD15O,0.30000X1.60000*%
%ADD16O,1.60000X0.30000*%
%ADD17R,1.85000X1.35000*%
%ADD18R,1.15776X1.36213*%
%ADD19R,0.95000X0.95000*%
G04:AMPARAMS|DCode=20|XSize=0.76mm|YSize=0.6604mm|CornerRadius=0.08255mm|HoleSize=0mm|Usage=FLASHONLY|Rotation=0.000|XOffset=0mm|YOffset=0mm|HoleType=Round|Shape=RoundedRectangle|*
%AMROUNDEDRECTD20*
21,1,0.76000,0.49530,0,0,0.0*
21,1,0.59490,0.66040,0,0,0.0*
1,1,0.16510,0.29745,-0.24765*
1,1,0.16510,-0.29745,-0.24765*
1,1,0.16510,-0.29745,0.24765*
1,1,0.16510,0.29745,0.24765*
%
%ADD20ROUNDEDRECTD20*%
%TA.AperFunction,Conductor*%
%ADD21C,0.25400*%
%ADD22C,0.20320*%
%TA.AperFunction,ViaPad*%
%ADD23C,1.52400*%
%TA.AperFunction,SMDPad,CuDef*%
%ADD24C,1.01600*%
%TA.AperFunction,ComponentPad*%
%ADD25C,1.57000*%
%ADD26R,1.57000X1.57000*%
%ADD27C,1.39000*%
%ADD28R,1.39000X1.39000*%
%ADD29R,1.39000X1.39000*%
%ADD30C,1.55000*%
%ADD31R,1.55000X1.55000*%
%ADD32R,1.55000X1.55000*%
%ADD33R,1.50000X1.50000*%
%ADD34C,1.50000*%
%TA.AperFunction,ViaPad*%
%ADD35C,0.50800*%
D10*
X3392199Y2565148D02*
D03*
X3482196D02*
D03*
X1584225Y1147928D02*
D03*
X1674222D02*
D03*
X2590001Y3356002D02*
D03*
X2680003D02*
D03*
X2335000Y3355001D02*
D03*
X2425003D02*
D03*
X1971003Y575904D02*
D03*
X2061001D02*
D03*
X3157955Y858614D02*
D03*
X3247957D02*
D03*
D11*
X256997Y2321887D02*
D03*
D12*
X351998D02*
D03*
X446999D02*
D03*
Y2551996D02*
D03*
X256997D02*
D03*
D13*
X426481Y2855927D02*
D03*
X256479D02*
D03*
X426481Y1840999D02*
D03*
X256479D02*
D03*
D14*
X2122503Y2760926D02*
D03*
Y2670924D02*
D03*
X3347195Y1413608D02*
D03*
Y1323606D02*
D03*
X3604101Y1274000D02*
D03*
Y1183002D02*
D03*
D15*
X2164124Y2408882D02*
D03*
X2214122D02*
D03*
X2264124D02*
D03*
X2314121D02*
D03*
X2364124D02*
D03*
X2414121D02*
D03*
X2464124D02*
D03*
X2514121D02*
D03*
X2564123D02*
D03*
X2614121D02*
D03*
X2664123D02*
D03*
X2714121D02*
D03*
X2764123D02*
D03*
X2814120D02*
D03*
X2864123D02*
D03*
X2914120D02*
D03*
Y1248879D02*
D03*
X2864123D02*
D03*
X2814120D02*
D03*
X2764123D02*
D03*
X2714121D02*
D03*
X2664123D02*
D03*
X2614121D02*
D03*
X2564123D02*
D03*
X2514121D02*
D03*
X2464124D02*
D03*
X2414121D02*
D03*
X2364124D02*
D03*
X2314121D02*
D03*
X2264124D02*
D03*
X2214122D02*
D03*
X2164124D02*
D03*
D16*
X3119124Y2203878D02*
D03*
Y2153881D02*
D03*
Y2103879D02*
D03*
Y2053881D02*
D03*
Y2003879D02*
D03*
Y1953882D02*
D03*
Y1903879D02*
D03*
Y1853882D02*
D03*
Y1803879D02*
D03*
Y1753882D02*
D03*
Y1703879D02*
D03*
Y1653882D02*
D03*
Y1603880D02*
D03*
Y1553882D02*
D03*
Y1503880D02*
D03*
Y1453883D02*
D03*
X1959121D02*
D03*
Y1503880D02*
D03*
Y1553882D02*
D03*
Y1603880D02*
D03*
Y1653882D02*
D03*
Y1703879D02*
D03*
Y1753882D02*
D03*
Y1803879D02*
D03*
Y1853882D02*
D03*
Y1903879D02*
D03*
Y1953882D02*
D03*
Y2003879D02*
D03*
Y2053881D02*
D03*
Y2103879D02*
D03*
Y2153881D02*
D03*
Y2203878D02*
D03*
D17*
X1590002Y2736496D02*
D03*
Y3041499D02*
D03*
D18*
X1508787Y791232D02*
D03*
X1674222D02*
D03*
D19*
X1094800Y2537650D02*
D03*
X1219798D02*
D03*
D20*
X2814120Y831116D02*
D03*
Y971116D02*
D03*
D21*
X3157955Y262834D02*
Y648745D01*
X3149121Y254000D02*
X3157955Y262834D01*
X2988999Y648745D02*
X3157955D01*
Y858614D01*
X1219798Y3143797D02*
X1349481Y3273480D01*
X1855522D02*
X2081000Y3048002D01*
X1349481Y3273480D02*
X1855522D01*
X2815000Y971116D02*
Y1247999D01*
X2814120Y727006D02*
X2892381Y648745D01*
X2814120Y727006D02*
Y831116D01*
X655499Y2858159D02*
Y3000605D01*
X582240Y3073864D02*
X655499Y3000605D01*
X499740Y3073864D02*
X582240D01*
X2016002Y1087508D02*
X2124887D01*
X2204524Y1167145D01*
Y1173037D01*
X2214122Y1182634D01*
Y1248879D01*
X2680003Y3355001D02*
X2841999D01*
X1800508Y1603001D02*
X1960000D01*
X2061000Y968727D02*
X2133121D01*
X1916007D02*
X2061000D01*
X1789500Y1095235D02*
X1916007Y968727D01*
X2133121D02*
X2214124Y1049730D01*
X1672501Y1790996D02*
X1809615Y1653882D01*
X1959121D01*
X937472Y2385529D02*
X1044999Y2278002D01*
X937472Y2385529D02*
Y2538117D01*
X937939Y2537650D01*
X1094800D01*
X2988999Y648745D02*
Y958456D01*
X2864123Y1083332D02*
X2988999Y958456D01*
X2892381Y648745D02*
X2988999D01*
X2843000Y3012929D02*
Y3048002D01*
X1789500Y1095235D02*
Y1499775D01*
X2061000Y575906D02*
Y968727D01*
X2264124Y1099730D02*
Y1248879D01*
X2214124Y1049730D02*
X2264124Y1099730D01*
X2118404Y2569525D02*
X2151000D01*
X1382320D02*
X2118404D01*
X3391848Y2346891D02*
Y2564797D01*
X3482196Y2346545D02*
Y2565148D01*
X3247957Y2203000D02*
X3391848Y2346891D01*
X3288653Y2153002D02*
X3482196Y2346545D01*
Y2565148D02*
X3483446Y2566397D01*
X3392199Y2565148D02*
Y2567647D01*
X3391848Y2564797D02*
X3392199Y2565148D01*
X2122503Y2760926D02*
X2270571D01*
X1885004D02*
X2122503D01*
X1860574Y2736496D02*
X1885004Y2760926D01*
X1590002Y2736496D02*
X1860574D01*
X2270571Y2760926D02*
X2295000Y2736496D01*
X2151000Y2569525D02*
X2164124Y2556401D01*
Y2408882D02*
Y2556401D01*
X2295000Y2618996D02*
Y2736496D01*
X2214122Y2538117D02*
X2295000Y2618996D01*
X2214122Y2408882D02*
Y2538117D01*
X2864123Y1083332D02*
Y1248879D01*
X2814120D02*
X2815000Y1247999D01*
X3152956Y853615D02*
X3157955Y858614D01*
X3604101Y933172D02*
Y1183002D01*
Y933172D02*
X3608160Y937231D01*
X4063998D01*
X762000Y673864D02*
Y858614D01*
Y673864D02*
X859958Y575906D01*
X1971003D01*
X1674222Y791232D02*
Y1147928D01*
X992618Y858614D02*
X1281932Y1147928D01*
X1584225D01*
Y1013954D02*
Y1147928D01*
X1674222D02*
Y1369923D01*
X1620716Y1423209D02*
X1620935D01*
X1674222Y1369923D01*
X1620716Y1423209D02*
X1739929Y1542422D01*
X1746853D01*
X1789500Y1499775D01*
X1739929Y1542422D02*
X1800508Y1603001D01*
X1501504Y1303997D02*
X1620716Y1423209D01*
X877981Y1303997D02*
X1501504D01*
X1219798Y2928429D02*
Y3012175D01*
X1411731Y2736496D02*
X1590002D01*
X1219798Y2928429D02*
X1411731Y2736496D01*
X1219798Y3012175D02*
Y3143797D01*
X2118404Y2765025D02*
X2122503Y2760926D01*
X949998Y3001847D02*
X1382320Y2569525D01*
X949998Y3001847D02*
Y3443998D01*
X1827504D01*
X1756500Y1936000D02*
Y2208002D01*
X1495001Y2278002D02*
X1686501D01*
X1756500Y2208002D01*
X1432701Y2340302D02*
X1495001Y2278002D01*
X1508787Y791232D02*
Y938516D01*
X1584225Y1013954D01*
X762000Y858614D02*
X992618D01*
X812055Y1369923D02*
X877981Y1303997D01*
X812055Y1369923D02*
Y3443998D01*
X949998D01*
X2425003Y3528996D02*
X2758006D01*
X1417147Y2340302D02*
X1432701D01*
X1219798Y2537650D02*
X1417147Y2340302D01*
X1789500Y1903000D02*
X1960000D01*
X1756500Y1936000D02*
X1789500Y1903000D01*
X1912502Y3528996D02*
X2425003D01*
X2758006D02*
X2843000Y3443998D01*
X2425003Y3355001D02*
Y3528996D01*
X3120002Y2203000D02*
X3247957D01*
X508000Y3443998D02*
X812055D01*
X308000D02*
X508000D01*
X1827504D02*
X1912502Y3528996D01*
X469499Y1408996D02*
X479189Y1399306D01*
Y1141425D02*
Y1399306D01*
Y1141425D02*
X762000Y858614D01*
X256479Y2855927D02*
Y3392477D01*
X308000Y3443998D01*
X426481Y2855927D02*
Y3000605D01*
X499740Y3073864D02*
Y3243495D01*
X426481Y3000605D02*
X499740Y3073864D01*
X256997Y1841517D02*
Y2321887D01*
X256479Y2855927D02*
X256997Y2855409D01*
X351998Y2321887D02*
X353248Y2320637D01*
Y2077249D02*
Y2320637D01*
X256479Y1840999D02*
Y1850996D01*
X446999Y2041517D02*
Y2321887D01*
X256997Y2551996D02*
Y2855409D01*
X353248Y2077249D02*
X354498Y2076000D01*
X256479Y1850996D02*
X446999Y2041517D01*
X256479Y1459018D02*
Y1840999D01*
X256997Y1841517D01*
X256479Y1459018D02*
X269499Y1445998D01*
X426481Y1599516D02*
Y1840999D01*
Y1599516D02*
X469499Y1556499D01*
Y1408996D02*
Y1556499D01*
X3835028Y1199004D02*
X4063998D01*
X3858101Y1453004D02*
X4063998D01*
X2330001Y3053000D02*
Y3355001D01*
X3347195Y1323606D02*
X3466590D01*
X2589503Y3355499D02*
X2590001Y3356002D01*
X2589503Y3048500D02*
Y3355499D01*
X2589000Y3048002D02*
X2589503Y3048500D01*
X2841999Y3355001D02*
X2843000Y3356002D01*
Y3443998D01*
Y3048002D02*
Y3356002D01*
X2330001Y3053000D02*
X2335000Y3048002D01*
X4078878Y2003000D02*
X4282880D01*
X4307498Y2027623D01*
Y2991121D01*
X3725498Y3006000D02*
X4063998D01*
X3683496Y3048002D02*
X3725498Y3006000D01*
X2843000Y3048002D02*
X3683496D01*
X4292619Y3006000D02*
X4307498Y2991121D01*
X4063998Y3006000D02*
X4292619D01*
X4063998Y1988121D02*
X4078878Y2003000D01*
X4063998Y1699231D02*
Y1988121D01*
X3530604Y1503428D02*
Y1638124D01*
Y1503428D02*
X3835028Y1199004D01*
X3515724Y1653003D02*
X3530604Y1638124D01*
X3120002Y1653003D02*
X3515724D01*
X3604101Y1707004D02*
X3858101Y1453004D01*
X3160734Y1712602D02*
X3166332Y1707004D01*
X3604101D01*
X3076497Y2752000D02*
X4063998D01*
X2914999Y2408003D02*
Y2590507D01*
X3076497Y2752000D01*
X2415000Y2408003D02*
Y2808998D01*
X2335000Y2888998D02*
X2415000Y2808998D01*
X2335000Y2888998D02*
Y3048002D01*
X2465002Y2610146D02*
X2589000Y2734149D01*
X2465002Y2408003D02*
Y2610146D01*
X2589000Y2734149D02*
Y3048002D01*
X3516197Y1274000D02*
X3604101D01*
X3466590Y1323606D02*
X3516197Y1274000D01*
X3347195Y1323606D02*
X3349695D01*
X3120002Y1553003D02*
X3314698D01*
X3347195Y1520502D01*
Y1413608D02*
Y1520502D01*
X3693590Y2053002D02*
X3878589Y2238001D01*
X4057999D01*
X4063998Y2244000D01*
X3120002Y2153002D02*
X3288653D01*
X3120002Y2103000D02*
X3432560D01*
X3827560Y2498000D02*
X4063998D01*
X3432560Y2103000D02*
X3827560Y2498000D01*
X2214122Y2408882D02*
X2215000Y2408003D01*
D22*
X3358186Y1072232D02*
X3874514Y555904D01*
X4180492D02*
X4307498Y682910D01*
X3874514Y555904D02*
X4180492D01*
X3247957Y1072232D02*
X3358186D01*
X2641121Y254000D02*
Y401239D01*
X2514121Y528239D02*
X2641121Y401239D01*
X2514121Y528239D02*
Y803823D01*
X2414121Y903823D02*
X2514121Y803823D01*
X2414121Y903823D02*
Y1248879D01*
X2133121Y254000D02*
X2314121Y435000D01*
Y1248879D01*
X1995966Y493571D02*
X2202221D01*
X1879121Y376725D02*
X1995966Y493571D01*
X2214124Y505474D02*
Y1049730D01*
X2202221Y493571D02*
X2214124Y505474D01*
X1879121Y254000D02*
Y376725D01*
X2364124Y759771D02*
X2387121Y736774D01*
X2364124Y759771D02*
Y1248879D01*
X2387121Y254000D02*
Y736774D01*
X2464124Y959237D02*
X2895121Y528239D01*
X2464124Y959237D02*
Y1248879D01*
X2895121Y269231D02*
Y528239D01*
X2118404Y2569525D02*
X2122503Y2573625D01*
Y2670924D01*
X2266711Y2858159D02*
X2352501Y2772369D01*
X2365013Y2409771D02*
Y2552285D01*
X2352501Y2564797D02*
Y2772369D01*
Y2564797D02*
X2365013Y2552285D01*
X1876735Y2858159D02*
X2266711D01*
X1734289Y3000605D02*
X1876735Y2858159D01*
X1590002Y3000605D02*
X1734289D01*
X3247957Y858614D02*
Y1072232D01*
X4307498Y682910D02*
Y1695100D01*
X4063998Y1699231D02*
X4071771Y1707004D01*
X4295595D01*
X4307498Y1695100D01*
X2914999Y1183002D02*
Y1248000D01*
Y1183002D02*
X3025773Y1072232D01*
X3247957D01*
D23*
X4307498Y3556000D02*
D03*
Y254000D02*
D03*
D24*
X256997D02*
D03*
X3751539Y269231D02*
D03*
X3827560Y3556000D02*
D03*
D25*
X3149121Y254000D02*
D03*
X2895121D02*
D03*
X2641121D02*
D03*
X2387121D02*
D03*
X2133121D02*
D03*
D26*
X1879121D02*
D03*
D27*
X469499Y1408996D02*
D03*
X508000Y3243998D02*
D03*
D28*
X269499Y1408996D02*
D03*
D29*
X508000Y3443998D02*
D03*
D30*
X2843000Y3048002D02*
D03*
X2335000D02*
D03*
X2589000D02*
D03*
X4063998Y3006000D02*
D03*
Y2498000D02*
D03*
Y2752000D02*
D03*
Y1699231D02*
D03*
Y1191231D02*
D03*
Y1445231D02*
D03*
D31*
X2081000Y3048002D02*
D03*
D32*
X4063998Y2244000D02*
D03*
Y937231D02*
D03*
D33*
X1495001Y2278002D02*
D03*
D34*
Y1628000D02*
D03*
X1044999D02*
D03*
Y2278002D02*
D03*
D35*
X3157955Y648745D02*
D03*
X655499Y2858159D02*
D03*
X2016002Y1087508D02*
D03*
X1672501Y1790996D02*
D03*
X937472Y2538117D02*
D03*
X3482196Y2346545D02*
D03*
X1219798Y3012175D02*
D03*
X762000Y858614D02*
D03*
X354498Y2076000D02*
D03*
X3693590Y2053002D02*
D03*
%TF.MD5,2293108c5d6dac273823eb79491f3f05*%
M02*
