%TF.GenerationSoftware,Altium Limited,Altium Designer,25.3.3 (18)*%
G04 Layer_Color=32768*
%FSLAX45Y45*%
%MOMM*%
%TF.SameCoordinates,F76437CA-266C-4EF0-AB4E-77791E4FF534*%
%TF.FilePolarity,Positive*%
%TF.FileFunction,Other,Fab_Notes*%
%TF.Part,Single*%
G01*
G75*
G36*
X2668358Y3382227D02*
X2668857Y3382171D01*
X2669466Y3382116D01*
X2670075Y3382061D01*
X2670795Y3381894D01*
X2672290Y3381562D01*
X2673951Y3381064D01*
X2674782Y3380732D01*
X2675557Y3380344D01*
X2676332Y3379846D01*
X2677107Y3379347D01*
X2677163Y3379292D01*
X2677273Y3379237D01*
X2677495Y3379070D01*
X2677772Y3378794D01*
X2678048Y3378517D01*
X2678436Y3378129D01*
X2678824Y3377686D01*
X2679267Y3377243D01*
X2679710Y3376689D01*
X2680153Y3376025D01*
X2680651Y3375361D01*
X2681094Y3374641D01*
X2681482Y3373810D01*
X2681925Y3372980D01*
X2682257Y3372094D01*
X2682589Y3371097D01*
X2677606Y3369934D01*
Y3369989D01*
X2677550Y3370100D01*
X2677439Y3370322D01*
X2677329Y3370599D01*
X2677218Y3370931D01*
X2677052Y3371374D01*
X2676609Y3372260D01*
X2676055Y3373256D01*
X2675391Y3374253D01*
X2674560Y3375194D01*
X2673674Y3376025D01*
X2673563Y3376136D01*
X2673231Y3376357D01*
X2672677Y3376634D01*
X2671958Y3377022D01*
X2671016Y3377354D01*
X2669964Y3377686D01*
X2668691Y3377908D01*
X2667306Y3377963D01*
X2666863D01*
X2666586Y3377908D01*
X2666199D01*
X2665756Y3377852D01*
X2664704Y3377686D01*
X2663541Y3377465D01*
X2662323Y3377077D01*
X2661049Y3376523D01*
X2659886Y3375804D01*
X2659831D01*
X2659776Y3375693D01*
X2659388Y3375416D01*
X2658890Y3374973D01*
X2658281Y3374308D01*
X2657561Y3373478D01*
X2656896Y3372537D01*
X2656287Y3371374D01*
X2655734Y3370100D01*
Y3370045D01*
X2655678Y3369934D01*
X2655623Y3369768D01*
X2655567Y3369491D01*
X2655457Y3369159D01*
X2655346Y3368771D01*
X2655180Y3367830D01*
X2654958Y3366723D01*
X2654737Y3365504D01*
X2654626Y3364175D01*
X2654571Y3362736D01*
Y3362680D01*
Y3362514D01*
Y3362237D01*
Y3361905D01*
X2654626Y3361518D01*
Y3361019D01*
X2654682Y3360465D01*
X2654737Y3359856D01*
X2654903Y3358527D01*
X2655180Y3357088D01*
X2655512Y3355648D01*
X2655955Y3354208D01*
Y3354153D01*
X2656010Y3354042D01*
X2656121Y3353876D01*
X2656232Y3353599D01*
X2656564Y3352935D01*
X2657063Y3352160D01*
X2657672Y3351274D01*
X2658447Y3350332D01*
X2659333Y3349502D01*
X2660385Y3348727D01*
X2660440D01*
X2660551Y3348671D01*
X2660717Y3348560D01*
X2660939Y3348450D01*
X2661215Y3348339D01*
X2661548Y3348173D01*
X2662323Y3347841D01*
X2663320Y3347508D01*
X2664427Y3347232D01*
X2665645Y3347010D01*
X2666919Y3346955D01*
X2667306D01*
X2667639Y3347010D01*
X2668026D01*
X2668414Y3347065D01*
X2669410Y3347287D01*
X2670573Y3347564D01*
X2671736Y3348007D01*
X2672954Y3348616D01*
X2673563Y3348948D01*
X2674117Y3349391D01*
X2674172Y3349446D01*
X2674228Y3349502D01*
X2674394Y3349668D01*
X2674615Y3349834D01*
X2674837Y3350111D01*
X2675114Y3350443D01*
X2675446Y3350775D01*
X2675723Y3351218D01*
X2676055Y3351717D01*
X2676443Y3352270D01*
X2676775Y3352824D01*
X2677107Y3353489D01*
X2677384Y3354208D01*
X2677661Y3354984D01*
X2677938Y3355814D01*
X2678159Y3356700D01*
X2683253Y3355427D01*
Y3355371D01*
X2683198Y3355150D01*
X2683087Y3354818D01*
X2682921Y3354375D01*
X2682755Y3353876D01*
X2682534Y3353267D01*
X2682257Y3352603D01*
X2681925Y3351883D01*
X2681149Y3350332D01*
X2680153Y3348782D01*
X2679544Y3348007D01*
X2678934Y3347232D01*
X2678270Y3346567D01*
X2677495Y3345903D01*
X2677439Y3345847D01*
X2677329Y3345737D01*
X2677052Y3345626D01*
X2676775Y3345404D01*
X2676332Y3345127D01*
X2675889Y3344851D01*
X2675280Y3344574D01*
X2674671Y3344297D01*
X2673951Y3343965D01*
X2673176Y3343688D01*
X2672345Y3343411D01*
X2671459Y3343134D01*
X2670518Y3342913D01*
X2669521Y3342802D01*
X2668469Y3342691D01*
X2667362Y3342636D01*
X2666753D01*
X2666310Y3342691D01*
X2665811D01*
X2665202Y3342746D01*
X2664538Y3342857D01*
X2663763Y3342968D01*
X2662157Y3343245D01*
X2660496Y3343688D01*
X2658834Y3344297D01*
X2658059Y3344684D01*
X2657284Y3345127D01*
X2657229Y3345183D01*
X2657118Y3345238D01*
X2656896Y3345404D01*
X2656675Y3345626D01*
X2656343Y3345847D01*
X2655955Y3346179D01*
X2655512Y3346567D01*
X2655069Y3347010D01*
X2654626Y3347508D01*
X2654128Y3348007D01*
X2653131Y3349280D01*
X2652190Y3350775D01*
X2651359Y3352437D01*
Y3352492D01*
X2651248Y3352658D01*
X2651193Y3352935D01*
X2651027Y3353267D01*
X2650916Y3353710D01*
X2650750Y3354264D01*
X2650529Y3354873D01*
X2650362Y3355537D01*
X2650196Y3356257D01*
X2649975Y3357088D01*
X2649698Y3358804D01*
X2649477Y3360742D01*
X2649366Y3362736D01*
Y3362791D01*
Y3363013D01*
Y3363345D01*
X2649421Y3363732D01*
Y3364286D01*
X2649477Y3364840D01*
X2649532Y3365560D01*
X2649643Y3366280D01*
X2649920Y3367885D01*
X2650307Y3369657D01*
X2650861Y3371429D01*
X2651636Y3373146D01*
X2651691Y3373201D01*
X2651747Y3373367D01*
X2651858Y3373589D01*
X2652079Y3373865D01*
X2652301Y3374253D01*
X2652577Y3374696D01*
X2653297Y3375693D01*
X2654239Y3376800D01*
X2655346Y3377908D01*
X2656620Y3379015D01*
X2658115Y3379956D01*
X2658170Y3380012D01*
X2658336Y3380067D01*
X2658558Y3380178D01*
X2658834Y3380344D01*
X2659277Y3380510D01*
X2659720Y3380676D01*
X2660274Y3380898D01*
X2660883Y3381119D01*
X2661548Y3381341D01*
X2662267Y3381562D01*
X2663818Y3381894D01*
X2665590Y3382171D01*
X2667417Y3382282D01*
X2667971D01*
X2668358Y3382227D01*
D02*
G37*
G36*
X2632754Y3381728D02*
X2633197Y3381673D01*
X2633751Y3381618D01*
X2634360Y3381507D01*
X2634969Y3381396D01*
X2636409Y3381008D01*
X2637848Y3380455D01*
X2638568Y3380123D01*
X2639288Y3379735D01*
X2639953Y3379237D01*
X2640562Y3378683D01*
X2640617Y3378627D01*
X2640728Y3378572D01*
X2640839Y3378351D01*
X2641060Y3378129D01*
X2641337Y3377852D01*
X2641614Y3377465D01*
X2641891Y3377077D01*
X2642223Y3376579D01*
X2642777Y3375527D01*
X2643330Y3374198D01*
X2643552Y3373533D01*
X2643662Y3372758D01*
X2643773Y3371983D01*
X2643829Y3371152D01*
Y3371042D01*
Y3370765D01*
X2643773Y3370322D01*
X2643718Y3369713D01*
X2643607Y3369048D01*
X2643386Y3368273D01*
X2643164Y3367442D01*
X2642832Y3366612D01*
X2642777Y3366501D01*
X2642666Y3366224D01*
X2642444Y3365781D01*
X2642112Y3365172D01*
X2641669Y3364508D01*
X2641115Y3363677D01*
X2640451Y3362846D01*
X2639676Y3361905D01*
X2639565Y3361794D01*
X2639288Y3361462D01*
X2639011Y3361185D01*
X2638734Y3360908D01*
X2638402Y3360576D01*
X2637959Y3360133D01*
X2637516Y3359690D01*
X2636962Y3359192D01*
X2636409Y3358638D01*
X2635744Y3358029D01*
X2635024Y3357420D01*
X2634249Y3356700D01*
X2633363Y3355980D01*
X2632477Y3355205D01*
X2632422Y3355150D01*
X2632311Y3355039D01*
X2632090Y3354873D01*
X2631813Y3354651D01*
X2631481Y3354319D01*
X2631093Y3353987D01*
X2630207Y3353267D01*
X2629266Y3352437D01*
X2628380Y3351606D01*
X2627605Y3350886D01*
X2627272Y3350609D01*
X2626996Y3350332D01*
X2626940Y3350277D01*
X2626774Y3350111D01*
X2626553Y3349889D01*
X2626276Y3349557D01*
X2625999Y3349170D01*
X2625667Y3348782D01*
X2625002Y3347841D01*
X2643884D01*
Y3343300D01*
X2618468D01*
Y3343356D01*
Y3343577D01*
Y3343909D01*
X2618524Y3344352D01*
X2618579Y3344851D01*
X2618690Y3345404D01*
X2618800Y3345958D01*
X2619022Y3346567D01*
Y3346622D01*
X2619077Y3346678D01*
X2619188Y3347010D01*
X2619410Y3347508D01*
X2619742Y3348173D01*
X2620185Y3348948D01*
X2620738Y3349834D01*
X2621348Y3350720D01*
X2622123Y3351661D01*
Y3351717D01*
X2622234Y3351772D01*
X2622510Y3352104D01*
X2623009Y3352603D01*
X2623729Y3353322D01*
X2624559Y3354153D01*
X2625611Y3355150D01*
X2626885Y3356257D01*
X2628269Y3357420D01*
X2628324Y3357475D01*
X2628546Y3357641D01*
X2628878Y3357918D01*
X2629266Y3358251D01*
X2629764Y3358694D01*
X2630373Y3359192D01*
X2630982Y3359746D01*
X2631702Y3360355D01*
X2633086Y3361684D01*
X2634471Y3363013D01*
X2635135Y3363677D01*
X2635744Y3364342D01*
X2636298Y3364951D01*
X2636741Y3365560D01*
Y3365615D01*
X2636852Y3365670D01*
X2636962Y3365837D01*
X2637073Y3366058D01*
X2637461Y3366667D01*
X2637904Y3367387D01*
X2638291Y3368273D01*
X2638679Y3369214D01*
X2638900Y3370266D01*
X2639011Y3371263D01*
Y3371318D01*
Y3371374D01*
X2638956Y3371706D01*
X2638900Y3372260D01*
X2638734Y3372869D01*
X2638513Y3373644D01*
X2638125Y3374419D01*
X2637627Y3375194D01*
X2636962Y3375970D01*
X2636852Y3376080D01*
X2636575Y3376302D01*
X2636187Y3376579D01*
X2635578Y3376966D01*
X2634803Y3377299D01*
X2633917Y3377631D01*
X2632865Y3377852D01*
X2631702Y3377908D01*
X2631370D01*
X2631148Y3377852D01*
X2630484Y3377797D01*
X2629709Y3377631D01*
X2628878Y3377409D01*
X2627937Y3377022D01*
X2627051Y3376523D01*
X2626220Y3375859D01*
X2626110Y3375748D01*
X2625888Y3375471D01*
X2625556Y3375028D01*
X2625224Y3374364D01*
X2624836Y3373589D01*
X2624504Y3372592D01*
X2624282Y3371484D01*
X2624172Y3370211D01*
X2619354Y3370709D01*
Y3370765D01*
X2619410Y3370931D01*
Y3371208D01*
X2619465Y3371595D01*
X2619576Y3372038D01*
X2619686Y3372537D01*
X2619853Y3373146D01*
X2620019Y3373755D01*
X2620462Y3375084D01*
X2621126Y3376413D01*
X2621514Y3377077D01*
X2622012Y3377742D01*
X2622510Y3378351D01*
X2623064Y3378904D01*
X2623119Y3378960D01*
X2623230Y3379015D01*
X2623396Y3379181D01*
X2623673Y3379347D01*
X2624005Y3379569D01*
X2624393Y3379790D01*
X2624836Y3380067D01*
X2625390Y3380344D01*
X2625999Y3380621D01*
X2626663Y3380898D01*
X2627383Y3381119D01*
X2628158Y3381341D01*
X2628989Y3381507D01*
X2629875Y3381673D01*
X2630816Y3381728D01*
X2631813Y3381784D01*
X2632367D01*
X2632754Y3381728D01*
D02*
G37*
G36*
X2612100Y3343300D02*
X2607006D01*
Y3381618D01*
X2612100D01*
Y3343300D01*
D02*
G37*
G36*
X2558279Y3381728D02*
X2558722Y3381673D01*
X2559276Y3381618D01*
X2559885Y3381507D01*
X2560494Y3381396D01*
X2561933Y3381008D01*
X2563373Y3380455D01*
X2564093Y3380123D01*
X2564813Y3379735D01*
X2565477Y3379237D01*
X2566086Y3378683D01*
X2566142Y3378627D01*
X2566252Y3378572D01*
X2566363Y3378351D01*
X2566585Y3378129D01*
X2566862Y3377852D01*
X2567138Y3377465D01*
X2567415Y3377077D01*
X2567747Y3376579D01*
X2568301Y3375527D01*
X2568855Y3374198D01*
X2569076Y3373533D01*
X2569187Y3372758D01*
X2569298Y3371983D01*
X2569353Y3371152D01*
Y3371042D01*
Y3370765D01*
X2569298Y3370322D01*
X2569243Y3369713D01*
X2569132Y3369048D01*
X2568910Y3368273D01*
X2568689Y3367442D01*
X2568357Y3366612D01*
X2568301Y3366501D01*
X2568190Y3366224D01*
X2567969Y3365781D01*
X2567637Y3365172D01*
X2567194Y3364508D01*
X2566640Y3363677D01*
X2565976Y3362846D01*
X2565200Y3361905D01*
X2565090Y3361794D01*
X2564813Y3361462D01*
X2564536Y3361185D01*
X2564259Y3360908D01*
X2563927Y3360576D01*
X2563484Y3360133D01*
X2563041Y3359690D01*
X2562487Y3359192D01*
X2561933Y3358638D01*
X2561269Y3358029D01*
X2560549Y3357420D01*
X2559774Y3356700D01*
X2558888Y3355980D01*
X2558002Y3355205D01*
X2557947Y3355150D01*
X2557836Y3355039D01*
X2557614Y3354873D01*
X2557338Y3354651D01*
X2557005Y3354319D01*
X2556618Y3353987D01*
X2555732Y3353267D01*
X2554790Y3352437D01*
X2553904Y3351606D01*
X2553129Y3350886D01*
X2552797Y3350609D01*
X2552520Y3350332D01*
X2552465Y3350277D01*
X2552299Y3350111D01*
X2552077Y3349889D01*
X2551800Y3349557D01*
X2551523Y3349170D01*
X2551191Y3348782D01*
X2550527Y3347841D01*
X2569409D01*
Y3343300D01*
X2543993D01*
Y3343356D01*
Y3343577D01*
Y3343909D01*
X2544048Y3344352D01*
X2544104Y3344851D01*
X2544214Y3345404D01*
X2544325Y3345958D01*
X2544547Y3346567D01*
Y3346622D01*
X2544602Y3346678D01*
X2544713Y3347010D01*
X2544934Y3347508D01*
X2545266Y3348173D01*
X2545709Y3348948D01*
X2546263Y3349834D01*
X2546872Y3350720D01*
X2547647Y3351661D01*
Y3351717D01*
X2547758Y3351772D01*
X2548035Y3352104D01*
X2548533Y3352603D01*
X2549253Y3353322D01*
X2550084Y3354153D01*
X2551136Y3355150D01*
X2552409Y3356257D01*
X2553794Y3357420D01*
X2553849Y3357475D01*
X2554071Y3357641D01*
X2554403Y3357918D01*
X2554790Y3358251D01*
X2555289Y3358694D01*
X2555898Y3359192D01*
X2556507Y3359746D01*
X2557227Y3360355D01*
X2558611Y3361684D01*
X2559995Y3363013D01*
X2560660Y3363677D01*
X2561269Y3364342D01*
X2561823Y3364951D01*
X2562266Y3365560D01*
Y3365615D01*
X2562376Y3365670D01*
X2562487Y3365837D01*
X2562598Y3366058D01*
X2562985Y3366667D01*
X2563428Y3367387D01*
X2563816Y3368273D01*
X2564204Y3369214D01*
X2564425Y3370266D01*
X2564536Y3371263D01*
Y3371318D01*
Y3371374D01*
X2564481Y3371706D01*
X2564425Y3372260D01*
X2564259Y3372869D01*
X2564038Y3373644D01*
X2563650Y3374419D01*
X2563152Y3375194D01*
X2562487Y3375970D01*
X2562376Y3376080D01*
X2562100Y3376302D01*
X2561712Y3376579D01*
X2561103Y3376966D01*
X2560328Y3377299D01*
X2559442Y3377631D01*
X2558390Y3377852D01*
X2557227Y3377908D01*
X2556895D01*
X2556673Y3377852D01*
X2556009Y3377797D01*
X2555233Y3377631D01*
X2554403Y3377409D01*
X2553461Y3377022D01*
X2552576Y3376523D01*
X2551745Y3375859D01*
X2551634Y3375748D01*
X2551413Y3375471D01*
X2551080Y3375028D01*
X2550748Y3374364D01*
X2550361Y3373589D01*
X2550028Y3372592D01*
X2549807Y3371484D01*
X2549696Y3370211D01*
X2544879Y3370709D01*
Y3370765D01*
X2544934Y3370931D01*
Y3371208D01*
X2544990Y3371595D01*
X2545100Y3372038D01*
X2545211Y3372537D01*
X2545377Y3373146D01*
X2545543Y3373755D01*
X2545986Y3375084D01*
X2546651Y3376413D01*
X2547038Y3377077D01*
X2547537Y3377742D01*
X2548035Y3378351D01*
X2548589Y3378904D01*
X2548644Y3378960D01*
X2548755Y3379015D01*
X2548921Y3379181D01*
X2549198Y3379347D01*
X2549530Y3379569D01*
X2549918Y3379790D01*
X2550361Y3380067D01*
X2550914Y3380344D01*
X2551523Y3380621D01*
X2552188Y3380898D01*
X2552908Y3381119D01*
X2553683Y3381341D01*
X2554514Y3381507D01*
X2555400Y3381673D01*
X2556341Y3381728D01*
X2557338Y3381784D01*
X2557891D01*
X2558279Y3381728D01*
D02*
G37*
G36*
X2526218Y3381562D02*
X2526717D01*
X2527880Y3381507D01*
X2529098Y3381341D01*
X2530427Y3381175D01*
X2531645Y3380898D01*
X2532254Y3380732D01*
X2532752Y3380566D01*
X2532808D01*
X2532863Y3380510D01*
X2533195Y3380344D01*
X2533694Y3380123D01*
X2534303Y3379735D01*
X2534967Y3379237D01*
X2535687Y3378572D01*
X2536352Y3377797D01*
X2537016Y3376911D01*
Y3376856D01*
X2537071Y3376800D01*
X2537293Y3376468D01*
X2537514Y3375914D01*
X2537847Y3375194D01*
X2538123Y3374364D01*
X2538400Y3373367D01*
X2538566Y3372315D01*
X2538622Y3371152D01*
Y3371097D01*
Y3370986D01*
Y3370765D01*
X2538566Y3370488D01*
Y3370100D01*
X2538511Y3369713D01*
X2538290Y3368771D01*
X2537957Y3367664D01*
X2537514Y3366501D01*
X2536850Y3365338D01*
X2536407Y3364784D01*
X2535964Y3364231D01*
X2535909Y3364175D01*
X2535853Y3364120D01*
X2535687Y3363954D01*
X2535466Y3363788D01*
X2535189Y3363566D01*
X2534857Y3363345D01*
X2534414Y3363068D01*
X2533971Y3362736D01*
X2533417Y3362459D01*
X2532808Y3362182D01*
X2532143Y3361850D01*
X2531423Y3361573D01*
X2530593Y3361351D01*
X2529762Y3361075D01*
X2528821Y3360908D01*
X2527824Y3360742D01*
X2527935Y3360687D01*
X2528156Y3360576D01*
X2528489Y3360355D01*
X2528932Y3360133D01*
X2529928Y3359524D01*
X2530427Y3359137D01*
X2530870Y3358804D01*
X2530980Y3358694D01*
X2531257Y3358417D01*
X2531700Y3357974D01*
X2532254Y3357420D01*
X2532863Y3356645D01*
X2533583Y3355814D01*
X2534303Y3354818D01*
X2535078Y3353710D01*
X2541667Y3343300D01*
X2535355D01*
X2530316Y3351274D01*
Y3351329D01*
X2530205Y3351440D01*
X2530095Y3351606D01*
X2529928Y3351827D01*
X2529541Y3352437D01*
X2529042Y3353212D01*
X2528433Y3354042D01*
X2527824Y3354928D01*
X2527215Y3355759D01*
X2526661Y3356534D01*
X2526606Y3356589D01*
X2526440Y3356811D01*
X2526163Y3357143D01*
X2525775Y3357531D01*
X2524945Y3358361D01*
X2524502Y3358749D01*
X2524059Y3359081D01*
X2524004Y3359137D01*
X2523893Y3359192D01*
X2523671Y3359303D01*
X2523339Y3359469D01*
X2523007Y3359635D01*
X2522619Y3359801D01*
X2521733Y3360078D01*
X2521678D01*
X2521567Y3360133D01*
X2521346D01*
X2521069Y3360189D01*
X2520681Y3360244D01*
X2520238D01*
X2519629Y3360299D01*
X2513095D01*
Y3343300D01*
X2508001D01*
Y3381618D01*
X2525775D01*
X2526218Y3381562D01*
D02*
G37*
G36*
X2602576Y3332669D02*
X2571402D01*
Y3336046D01*
X2602576D01*
Y3332669D01*
D02*
G37*
G36*
X2413358Y3381226D02*
X2413857Y3381171D01*
X2414466Y3381116D01*
X2415075Y3381060D01*
X2415795Y3380894D01*
X2417290Y3380562D01*
X2418951Y3380064D01*
X2419782Y3379731D01*
X2420557Y3379344D01*
X2421332Y3378845D01*
X2422107Y3378347D01*
X2422163Y3378292D01*
X2422273Y3378236D01*
X2422495Y3378070D01*
X2422772Y3377793D01*
X2423048Y3377516D01*
X2423436Y3377129D01*
X2423824Y3376686D01*
X2424267Y3376243D01*
X2424710Y3375689D01*
X2425153Y3375025D01*
X2425651Y3374360D01*
X2426094Y3373640D01*
X2426482Y3372810D01*
X2426925Y3371979D01*
X2427257Y3371093D01*
X2427589Y3370097D01*
X2422606Y3368934D01*
Y3368989D01*
X2422550Y3369100D01*
X2422439Y3369321D01*
X2422329Y3369598D01*
X2422218Y3369931D01*
X2422052Y3370373D01*
X2421609Y3371259D01*
X2421055Y3372256D01*
X2420391Y3373253D01*
X2419560Y3374194D01*
X2418674Y3375025D01*
X2418563Y3375135D01*
X2418231Y3375357D01*
X2417677Y3375634D01*
X2416958Y3376021D01*
X2416016Y3376354D01*
X2414964Y3376686D01*
X2413691Y3376907D01*
X2412306Y3376963D01*
X2411863D01*
X2411586Y3376907D01*
X2411199D01*
X2410756Y3376852D01*
X2409704Y3376686D01*
X2408541Y3376464D01*
X2407323Y3376077D01*
X2406049Y3375523D01*
X2404886Y3374803D01*
X2404831D01*
X2404776Y3374693D01*
X2404388Y3374416D01*
X2403890Y3373973D01*
X2403281Y3373308D01*
X2402561Y3372478D01*
X2401896Y3371536D01*
X2401287Y3370373D01*
X2400734Y3369100D01*
Y3369045D01*
X2400678Y3368934D01*
X2400623Y3368768D01*
X2400567Y3368491D01*
X2400457Y3368159D01*
X2400346Y3367771D01*
X2400180Y3366830D01*
X2399958Y3365722D01*
X2399737Y3364504D01*
X2399626Y3363175D01*
X2399571Y3361735D01*
Y3361680D01*
Y3361514D01*
Y3361237D01*
Y3360905D01*
X2399626Y3360517D01*
Y3360019D01*
X2399682Y3359465D01*
X2399737Y3358856D01*
X2399903Y3357527D01*
X2400180Y3356088D01*
X2400512Y3354648D01*
X2400955Y3353208D01*
Y3353153D01*
X2401010Y3353042D01*
X2401121Y3352876D01*
X2401232Y3352599D01*
X2401564Y3351935D01*
X2402063Y3351159D01*
X2402672Y3350273D01*
X2403447Y3349332D01*
X2404333Y3348502D01*
X2405385Y3347726D01*
X2405440D01*
X2405551Y3347671D01*
X2405717Y3347560D01*
X2405939Y3347449D01*
X2406215Y3347339D01*
X2406548Y3347173D01*
X2407323Y3346840D01*
X2408320Y3346508D01*
X2409427Y3346231D01*
X2410645Y3346010D01*
X2411919Y3345954D01*
X2412306D01*
X2412639Y3346010D01*
X2413026D01*
X2413414Y3346065D01*
X2414410Y3346287D01*
X2415573Y3346564D01*
X2416736Y3347007D01*
X2417954Y3347616D01*
X2418563Y3347948D01*
X2419117Y3348391D01*
X2419172Y3348446D01*
X2419228Y3348502D01*
X2419394Y3348668D01*
X2419615Y3348834D01*
X2419837Y3349111D01*
X2420114Y3349443D01*
X2420446Y3349775D01*
X2420723Y3350218D01*
X2421055Y3350716D01*
X2421443Y3351270D01*
X2421775Y3351824D01*
X2422107Y3352488D01*
X2422384Y3353208D01*
X2422661Y3353983D01*
X2422938Y3354814D01*
X2423159Y3355700D01*
X2428253Y3354426D01*
Y3354371D01*
X2428198Y3354150D01*
X2428087Y3353817D01*
X2427921Y3353374D01*
X2427755Y3352876D01*
X2427534Y3352267D01*
X2427257Y3351602D01*
X2426925Y3350883D01*
X2426149Y3349332D01*
X2425153Y3347782D01*
X2424544Y3347007D01*
X2423934Y3346231D01*
X2423270Y3345567D01*
X2422495Y3344902D01*
X2422439Y3344847D01*
X2422329Y3344736D01*
X2422052Y3344626D01*
X2421775Y3344404D01*
X2421332Y3344127D01*
X2420889Y3343850D01*
X2420280Y3343573D01*
X2419671Y3343297D01*
X2418951Y3342964D01*
X2418176Y3342687D01*
X2417345Y3342411D01*
X2416459Y3342134D01*
X2415518Y3341912D01*
X2414521Y3341802D01*
X2413469Y3341691D01*
X2412362Y3341635D01*
X2411753D01*
X2411310Y3341691D01*
X2410811D01*
X2410202Y3341746D01*
X2409538Y3341857D01*
X2408763Y3341968D01*
X2407157Y3342245D01*
X2405496Y3342687D01*
X2403834Y3343297D01*
X2403059Y3343684D01*
X2402284Y3344127D01*
X2402229Y3344183D01*
X2402118Y3344238D01*
X2401896Y3344404D01*
X2401675Y3344626D01*
X2401343Y3344847D01*
X2400955Y3345179D01*
X2400512Y3345567D01*
X2400069Y3346010D01*
X2399626Y3346508D01*
X2399128Y3347007D01*
X2398131Y3348280D01*
X2397190Y3349775D01*
X2396359Y3351436D01*
Y3351492D01*
X2396248Y3351658D01*
X2396193Y3351935D01*
X2396027Y3352267D01*
X2395916Y3352710D01*
X2395750Y3353264D01*
X2395529Y3353873D01*
X2395362Y3354537D01*
X2395196Y3355257D01*
X2394975Y3356088D01*
X2394698Y3357804D01*
X2394477Y3359742D01*
X2394366Y3361735D01*
Y3361791D01*
Y3362012D01*
Y3362345D01*
X2394421Y3362732D01*
Y3363286D01*
X2394477Y3363840D01*
X2394532Y3364559D01*
X2394643Y3365279D01*
X2394920Y3366885D01*
X2395307Y3368657D01*
X2395861Y3370429D01*
X2396636Y3372145D01*
X2396691Y3372201D01*
X2396747Y3372367D01*
X2396858Y3372588D01*
X2397079Y3372865D01*
X2397301Y3373253D01*
X2397577Y3373696D01*
X2398297Y3374693D01*
X2399239Y3375800D01*
X2400346Y3376907D01*
X2401620Y3378015D01*
X2403115Y3378956D01*
X2403170Y3379012D01*
X2403336Y3379067D01*
X2403558Y3379178D01*
X2403834Y3379344D01*
X2404277Y3379510D01*
X2404720Y3379676D01*
X2405274Y3379897D01*
X2405883Y3380119D01*
X2406548Y3380340D01*
X2407267Y3380562D01*
X2408818Y3380894D01*
X2410590Y3381171D01*
X2412417Y3381282D01*
X2412971D01*
X2413358Y3381226D01*
D02*
G37*
G36*
X2377754Y3380728D02*
X2378197Y3380673D01*
X2378751Y3380617D01*
X2379360Y3380507D01*
X2379969Y3380396D01*
X2381409Y3380008D01*
X2382848Y3379455D01*
X2383568Y3379122D01*
X2384288Y3378735D01*
X2384953Y3378236D01*
X2385562Y3377683D01*
X2385617Y3377627D01*
X2385728Y3377572D01*
X2385839Y3377350D01*
X2386060Y3377129D01*
X2386337Y3376852D01*
X2386614Y3376464D01*
X2386891Y3376077D01*
X2387223Y3375578D01*
X2387777Y3374526D01*
X2388330Y3373197D01*
X2388552Y3372533D01*
X2388662Y3371758D01*
X2388773Y3370983D01*
X2388829Y3370152D01*
Y3370041D01*
Y3369764D01*
X2388773Y3369321D01*
X2388718Y3368712D01*
X2388607Y3368048D01*
X2388386Y3367273D01*
X2388164Y3366442D01*
X2387832Y3365612D01*
X2387777Y3365501D01*
X2387666Y3365224D01*
X2387444Y3364781D01*
X2387112Y3364172D01*
X2386669Y3363507D01*
X2386115Y3362677D01*
X2385451Y3361846D01*
X2384676Y3360905D01*
X2384565Y3360794D01*
X2384288Y3360462D01*
X2384011Y3360185D01*
X2383734Y3359908D01*
X2383402Y3359576D01*
X2382959Y3359133D01*
X2382516Y3358690D01*
X2381962Y3358192D01*
X2381409Y3357638D01*
X2380744Y3357029D01*
X2380024Y3356420D01*
X2379249Y3355700D01*
X2378363Y3354980D01*
X2377477Y3354205D01*
X2377422Y3354150D01*
X2377311Y3354039D01*
X2377090Y3353873D01*
X2376813Y3353651D01*
X2376481Y3353319D01*
X2376093Y3352987D01*
X2375207Y3352267D01*
X2374266Y3351436D01*
X2373380Y3350606D01*
X2372605Y3349886D01*
X2372272Y3349609D01*
X2371996Y3349332D01*
X2371940Y3349277D01*
X2371774Y3349111D01*
X2371553Y3348889D01*
X2371276Y3348557D01*
X2370999Y3348169D01*
X2370667Y3347782D01*
X2370002Y3346840D01*
X2388884D01*
Y3342300D01*
X2363468D01*
Y3342355D01*
Y3342577D01*
Y3342909D01*
X2363524Y3343352D01*
X2363579Y3343850D01*
X2363690Y3344404D01*
X2363800Y3344958D01*
X2364022Y3345567D01*
Y3345622D01*
X2364077Y3345678D01*
X2364188Y3346010D01*
X2364410Y3346508D01*
X2364742Y3347173D01*
X2365185Y3347948D01*
X2365738Y3348834D01*
X2366348Y3349720D01*
X2367123Y3350661D01*
Y3350716D01*
X2367234Y3350772D01*
X2367510Y3351104D01*
X2368009Y3351602D01*
X2368729Y3352322D01*
X2369559Y3353153D01*
X2370611Y3354150D01*
X2371885Y3355257D01*
X2373269Y3356420D01*
X2373324Y3356475D01*
X2373546Y3356641D01*
X2373878Y3356918D01*
X2374266Y3357250D01*
X2374764Y3357693D01*
X2375373Y3358192D01*
X2375982Y3358745D01*
X2376702Y3359354D01*
X2378086Y3360683D01*
X2379471Y3362012D01*
X2380135Y3362677D01*
X2380744Y3363341D01*
X2381298Y3363950D01*
X2381741Y3364559D01*
Y3364615D01*
X2381852Y3364670D01*
X2381962Y3364836D01*
X2382073Y3365058D01*
X2382461Y3365667D01*
X2382904Y3366387D01*
X2383291Y3367273D01*
X2383679Y3368214D01*
X2383900Y3369266D01*
X2384011Y3370263D01*
Y3370318D01*
Y3370373D01*
X2383956Y3370706D01*
X2383900Y3371259D01*
X2383734Y3371869D01*
X2383513Y3372644D01*
X2383125Y3373419D01*
X2382627Y3374194D01*
X2381962Y3374969D01*
X2381852Y3375080D01*
X2381575Y3375302D01*
X2381187Y3375578D01*
X2380578Y3375966D01*
X2379803Y3376298D01*
X2378917Y3376631D01*
X2377865Y3376852D01*
X2376702Y3376907D01*
X2376370D01*
X2376148Y3376852D01*
X2375484Y3376797D01*
X2374709Y3376631D01*
X2373878Y3376409D01*
X2372937Y3376021D01*
X2372051Y3375523D01*
X2371220Y3374859D01*
X2371110Y3374748D01*
X2370888Y3374471D01*
X2370556Y3374028D01*
X2370224Y3373364D01*
X2369836Y3372588D01*
X2369504Y3371592D01*
X2369282Y3370484D01*
X2369172Y3369211D01*
X2364354Y3369709D01*
Y3369764D01*
X2364410Y3369931D01*
Y3370207D01*
X2364465Y3370595D01*
X2364576Y3371038D01*
X2364686Y3371536D01*
X2364853Y3372145D01*
X2365019Y3372754D01*
X2365462Y3374083D01*
X2366126Y3375412D01*
X2366514Y3376077D01*
X2367012Y3376741D01*
X2367510Y3377350D01*
X2368064Y3377904D01*
X2368119Y3377959D01*
X2368230Y3378015D01*
X2368396Y3378181D01*
X2368673Y3378347D01*
X2369005Y3378569D01*
X2369393Y3378790D01*
X2369836Y3379067D01*
X2370390Y3379344D01*
X2370999Y3379621D01*
X2371663Y3379897D01*
X2372383Y3380119D01*
X2373158Y3380340D01*
X2373989Y3380507D01*
X2374875Y3380673D01*
X2375816Y3380728D01*
X2376813Y3380783D01*
X2377367D01*
X2377754Y3380728D01*
D02*
G37*
G36*
X2357100Y3342300D02*
X2352006D01*
Y3380617D01*
X2357100D01*
Y3342300D01*
D02*
G37*
G36*
X2307376D02*
X2302670D01*
Y3372256D01*
X2302614Y3372201D01*
X2302338Y3371979D01*
X2302005Y3371647D01*
X2301452Y3371259D01*
X2300842Y3370761D01*
X2300067Y3370207D01*
X2299181Y3369598D01*
X2298185Y3368989D01*
X2298129D01*
X2298074Y3368934D01*
X2297742Y3368712D01*
X2297188Y3368435D01*
X2296523Y3368103D01*
X2295748Y3367716D01*
X2294918Y3367328D01*
X2294087Y3366940D01*
X2293257Y3366608D01*
Y3371149D01*
X2293312D01*
X2293423Y3371259D01*
X2293644Y3371315D01*
X2293921Y3371481D01*
X2294253Y3371647D01*
X2294641Y3371869D01*
X2295582Y3372422D01*
X2296690Y3373031D01*
X2297797Y3373807D01*
X2298960Y3374693D01*
X2300123Y3375634D01*
X2300178Y3375689D01*
X2300233Y3375745D01*
X2300400Y3375911D01*
X2300621Y3376077D01*
X2301119Y3376631D01*
X2301784Y3377295D01*
X2302448Y3378070D01*
X2303168Y3378956D01*
X2303777Y3379842D01*
X2304331Y3380783D01*
X2307376D01*
Y3342300D01*
D02*
G37*
G36*
X2271218Y3380562D02*
X2271717D01*
X2272880Y3380507D01*
X2274098Y3380340D01*
X2275427Y3380174D01*
X2276645Y3379897D01*
X2277254Y3379731D01*
X2277752Y3379565D01*
X2277808D01*
X2277863Y3379510D01*
X2278195Y3379344D01*
X2278694Y3379122D01*
X2279303Y3378735D01*
X2279967Y3378236D01*
X2280687Y3377572D01*
X2281352Y3376797D01*
X2282016Y3375911D01*
Y3375855D01*
X2282071Y3375800D01*
X2282293Y3375468D01*
X2282514Y3374914D01*
X2282847Y3374194D01*
X2283123Y3373364D01*
X2283400Y3372367D01*
X2283566Y3371315D01*
X2283622Y3370152D01*
Y3370097D01*
Y3369986D01*
Y3369764D01*
X2283566Y3369488D01*
Y3369100D01*
X2283511Y3368712D01*
X2283290Y3367771D01*
X2282957Y3366664D01*
X2282514Y3365501D01*
X2281850Y3364338D01*
X2281407Y3363784D01*
X2280964Y3363231D01*
X2280909Y3363175D01*
X2280853Y3363120D01*
X2280687Y3362954D01*
X2280466Y3362788D01*
X2280189Y3362566D01*
X2279857Y3362345D01*
X2279414Y3362068D01*
X2278971Y3361735D01*
X2278417Y3361459D01*
X2277808Y3361182D01*
X2277143Y3360850D01*
X2276423Y3360573D01*
X2275593Y3360351D01*
X2274762Y3360074D01*
X2273821Y3359908D01*
X2272824Y3359742D01*
X2272935Y3359687D01*
X2273156Y3359576D01*
X2273489Y3359354D01*
X2273932Y3359133D01*
X2274928Y3358524D01*
X2275427Y3358136D01*
X2275870Y3357804D01*
X2275980Y3357693D01*
X2276257Y3357416D01*
X2276700Y3356973D01*
X2277254Y3356420D01*
X2277863Y3355645D01*
X2278583Y3354814D01*
X2279303Y3353817D01*
X2280078Y3352710D01*
X2286667Y3342300D01*
X2280355D01*
X2275316Y3350273D01*
Y3350329D01*
X2275205Y3350440D01*
X2275095Y3350606D01*
X2274928Y3350827D01*
X2274541Y3351436D01*
X2274042Y3352211D01*
X2273433Y3353042D01*
X2272824Y3353928D01*
X2272215Y3354759D01*
X2271661Y3355534D01*
X2271606Y3355589D01*
X2271440Y3355811D01*
X2271163Y3356143D01*
X2270775Y3356530D01*
X2269945Y3357361D01*
X2269502Y3357749D01*
X2269059Y3358081D01*
X2269004Y3358136D01*
X2268893Y3358192D01*
X2268671Y3358302D01*
X2268339Y3358469D01*
X2268007Y3358635D01*
X2267619Y3358801D01*
X2266733Y3359078D01*
X2266678D01*
X2266567Y3359133D01*
X2266346D01*
X2266069Y3359188D01*
X2265681Y3359244D01*
X2265238D01*
X2264629Y3359299D01*
X2258095D01*
Y3342300D01*
X2253001D01*
Y3380617D01*
X2270775D01*
X2271218Y3380562D01*
D02*
G37*
G36*
X2347576Y3331668D02*
X2316402D01*
Y3335046D01*
X2347576D01*
Y3331668D01*
D02*
G37*
G36*
X3372814Y1477833D02*
X3372759Y1477390D01*
Y1476892D01*
X3372703Y1475729D01*
X3372537Y1474511D01*
X3372371Y1473182D01*
X3372094Y1471964D01*
X3371928Y1471355D01*
X3371762Y1470857D01*
Y1470801D01*
X3371706Y1470746D01*
X3371540Y1470414D01*
X3371319Y1469915D01*
X3370931Y1469306D01*
X3370433Y1468642D01*
X3369768Y1467922D01*
X3368993Y1467257D01*
X3368107Y1466593D01*
X3368052D01*
X3367997Y1466538D01*
X3367664Y1466316D01*
X3367111Y1466095D01*
X3366391Y1465762D01*
X3365560Y1465486D01*
X3364564Y1465209D01*
X3363511Y1465043D01*
X3362349Y1464987D01*
X3362293D01*
X3362183D01*
X3361961D01*
X3361684Y1465043D01*
X3361297D01*
X3360909Y1465098D01*
X3359968Y1465319D01*
X3358860Y1465652D01*
X3357697Y1466095D01*
X3356535Y1466759D01*
X3355981Y1467202D01*
X3355427Y1467645D01*
X3355372Y1467700D01*
X3355316Y1467756D01*
X3355150Y1467922D01*
X3354984Y1468143D01*
X3354763Y1468420D01*
X3354541Y1468752D01*
X3354264Y1469195D01*
X3353932Y1469638D01*
X3353655Y1470192D01*
X3353378Y1470801D01*
X3353046Y1471466D01*
X3352769Y1472186D01*
X3352548Y1473016D01*
X3352271Y1473847D01*
X3352105Y1474788D01*
X3351939Y1475785D01*
X3351883Y1475674D01*
X3351773Y1475452D01*
X3351551Y1475120D01*
X3351330Y1474677D01*
X3350721Y1473681D01*
X3350333Y1473182D01*
X3350001Y1472739D01*
X3349890Y1472629D01*
X3349613Y1472352D01*
X3349170Y1471909D01*
X3348616Y1471355D01*
X3347841Y1470746D01*
X3347011Y1470026D01*
X3346014Y1469306D01*
X3344906Y1468531D01*
X3334497Y1461942D01*
Y1468254D01*
X3342470Y1473293D01*
X3342525D01*
X3342636Y1473404D01*
X3342802Y1473514D01*
X3343024Y1473681D01*
X3343633Y1474068D01*
X3344408Y1474567D01*
X3345239Y1475176D01*
X3346125Y1475785D01*
X3346955Y1476394D01*
X3347730Y1476948D01*
X3347786Y1477003D01*
X3348007Y1477169D01*
X3348340Y1477446D01*
X3348727Y1477833D01*
X3349558Y1478664D01*
X3349945Y1479107D01*
X3350278Y1479550D01*
X3350333Y1479605D01*
X3350388Y1479716D01*
X3350499Y1479938D01*
X3350665Y1480270D01*
X3350831Y1480602D01*
X3350997Y1480990D01*
X3351274Y1481876D01*
Y1481931D01*
X3351330Y1482042D01*
Y1482263D01*
X3351385Y1482540D01*
X3351440Y1482928D01*
Y1483371D01*
X3351496Y1483980D01*
Y1490514D01*
X3334497D01*
Y1495608D01*
X3372814D01*
Y1477833D01*
D02*
G37*
G36*
X3327243Y1430823D02*
X3323865D01*
Y1461997D01*
X3327243D01*
Y1430823D01*
D02*
G37*
G36*
X3372814Y1422351D02*
X3339037D01*
Y1403469D01*
X3334497D01*
Y1427445D01*
X3372814D01*
Y1422351D01*
D02*
G37*
G36*
Y1369637D02*
X3368273D01*
Y1392284D01*
X3356590D01*
Y1371076D01*
X3352049D01*
Y1392284D01*
X3339037D01*
Y1368751D01*
X3334497D01*
Y1397378D01*
X3372814D01*
Y1369637D01*
D02*
G37*
G36*
Y1346989D02*
X3372759Y1345993D01*
X3372703Y1344885D01*
X3372592Y1343778D01*
X3372426Y1342670D01*
X3372260Y1341729D01*
Y1341674D01*
X3372205Y1341563D01*
Y1341397D01*
X3372094Y1341175D01*
X3371928Y1340566D01*
X3371651Y1339791D01*
X3371264Y1338905D01*
X3370765Y1337964D01*
X3370211Y1337022D01*
X3369492Y1336137D01*
X3369436Y1336081D01*
X3369381Y1336026D01*
X3369215Y1335860D01*
X3369049Y1335638D01*
X3368495Y1335084D01*
X3367720Y1334420D01*
X3366778Y1333700D01*
X3365671Y1332925D01*
X3364397Y1332205D01*
X3362958Y1331596D01*
X3362902D01*
X3362792Y1331541D01*
X3362570Y1331430D01*
X3362238Y1331375D01*
X3361850Y1331208D01*
X3361407Y1331098D01*
X3360909Y1330987D01*
X3360300Y1330821D01*
X3359691Y1330655D01*
X3358971Y1330544D01*
X3357421Y1330267D01*
X3355704Y1330101D01*
X3353821Y1330046D01*
X3353766D01*
X3353655D01*
X3353378D01*
X3353101D01*
X3352714Y1330101D01*
X3352271D01*
X3351219Y1330156D01*
X3350001Y1330322D01*
X3348727Y1330489D01*
X3347398Y1330765D01*
X3346069Y1331098D01*
X3346014D01*
X3345903Y1331153D01*
X3345737Y1331208D01*
X3345516Y1331264D01*
X3344906Y1331485D01*
X3344131Y1331818D01*
X3343245Y1332150D01*
X3342359Y1332593D01*
X3341418Y1333146D01*
X3340532Y1333700D01*
X3340421Y1333756D01*
X3340144Y1333977D01*
X3339757Y1334309D01*
X3339258Y1334752D01*
X3338705Y1335251D01*
X3338151Y1335860D01*
X3337542Y1336469D01*
X3337044Y1337189D01*
X3336988Y1337299D01*
X3336822Y1337521D01*
X3336601Y1337908D01*
X3336324Y1338462D01*
X3335992Y1339127D01*
X3335715Y1339902D01*
X3335382Y1340788D01*
X3335106Y1341784D01*
Y1341895D01*
X3335050Y1342061D01*
X3334995Y1342227D01*
X3334939Y1342781D01*
X3334829Y1343556D01*
X3334718Y1344442D01*
X3334607Y1345494D01*
X3334552Y1346657D01*
X3334497Y1347931D01*
Y1361718D01*
X3372814D01*
Y1346989D01*
D02*
G37*
%LPC*%
G36*
X2525166Y3377354D02*
X2513095D01*
Y3364674D01*
X2524502D01*
X2525166Y3364729D01*
X2525942Y3364784D01*
X2526828Y3364840D01*
X2527714Y3364951D01*
X2528599Y3365117D01*
X2529375Y3365338D01*
X2529485Y3365394D01*
X2529707Y3365504D01*
X2530039Y3365670D01*
X2530482Y3365892D01*
X2530980Y3366224D01*
X2531479Y3366612D01*
X2531977Y3367110D01*
X2532365Y3367664D01*
X2532420Y3367719D01*
X2532531Y3367941D01*
X2532697Y3368273D01*
X2532918Y3368716D01*
X2533085Y3369214D01*
X2533251Y3369768D01*
X2533361Y3370432D01*
X2533417Y3371097D01*
Y3371152D01*
Y3371208D01*
X2533361Y3371540D01*
X2533306Y3372038D01*
X2533195Y3372703D01*
X2532918Y3373367D01*
X2532586Y3374142D01*
X2532088Y3374862D01*
X2531423Y3375582D01*
X2531313Y3375637D01*
X2531036Y3375859D01*
X2530593Y3376136D01*
X2529873Y3376468D01*
X2529042Y3376800D01*
X2527935Y3377077D01*
X2526661Y3377299D01*
X2525166Y3377354D01*
D02*
G37*
G36*
X2270166Y3376354D02*
X2258095D01*
Y3363673D01*
X2269502D01*
X2270166Y3363729D01*
X2270942Y3363784D01*
X2271828Y3363840D01*
X2272714Y3363950D01*
X2273599Y3364116D01*
X2274375Y3364338D01*
X2274485Y3364393D01*
X2274707Y3364504D01*
X2275039Y3364670D01*
X2275482Y3364892D01*
X2275980Y3365224D01*
X2276479Y3365612D01*
X2276977Y3366110D01*
X2277365Y3366664D01*
X2277420Y3366719D01*
X2277531Y3366940D01*
X2277697Y3367273D01*
X2277918Y3367716D01*
X2278085Y3368214D01*
X2278251Y3368768D01*
X2278361Y3369432D01*
X2278417Y3370097D01*
Y3370152D01*
Y3370207D01*
X2278361Y3370540D01*
X2278306Y3371038D01*
X2278195Y3371702D01*
X2277918Y3372367D01*
X2277586Y3373142D01*
X2277088Y3373862D01*
X2276423Y3374582D01*
X2276313Y3374637D01*
X2276036Y3374859D01*
X2275593Y3375135D01*
X2274873Y3375468D01*
X2274042Y3375800D01*
X2272935Y3376077D01*
X2271661Y3376298D01*
X2270166Y3376354D01*
D02*
G37*
G36*
X3368550Y1490514D02*
X3355870D01*
Y1479107D01*
X3355925Y1478443D01*
X3355981Y1477667D01*
X3356036Y1476781D01*
X3356147Y1475895D01*
X3356313Y1475009D01*
X3356535Y1474234D01*
X3356590Y1474124D01*
X3356701Y1473902D01*
X3356867Y1473570D01*
X3357088Y1473127D01*
X3357421Y1472629D01*
X3357808Y1472130D01*
X3358306Y1471632D01*
X3358860Y1471244D01*
X3358916Y1471189D01*
X3359137Y1471078D01*
X3359469Y1470912D01*
X3359912Y1470690D01*
X3360411Y1470524D01*
X3360964Y1470358D01*
X3361629Y1470248D01*
X3362293Y1470192D01*
X3362349D01*
X3362404D01*
X3362736Y1470248D01*
X3363235Y1470303D01*
X3363899Y1470414D01*
X3364564Y1470690D01*
X3365339Y1471023D01*
X3366059Y1471521D01*
X3366778Y1472186D01*
X3366834Y1472296D01*
X3367055Y1472573D01*
X3367332Y1473016D01*
X3367664Y1473736D01*
X3367997Y1474567D01*
X3368273Y1475674D01*
X3368495Y1476948D01*
X3368550Y1478443D01*
Y1490514D01*
D02*
G37*
G36*
X3368273Y1356624D02*
X3339037D01*
Y1347543D01*
X3339092Y1347156D01*
X3339148Y1346325D01*
X3339203Y1345384D01*
X3339314Y1344387D01*
X3339480Y1343390D01*
X3339701Y1342560D01*
X3339757Y1342449D01*
X3339812Y1342172D01*
X3339978Y1341784D01*
X3340200Y1341286D01*
X3340532Y1340732D01*
X3340864Y1340179D01*
X3341252Y1339625D01*
X3341695Y1339071D01*
X3341806Y1339016D01*
X3342027Y1338794D01*
X3342415Y1338462D01*
X3342968Y1338075D01*
X3343688Y1337632D01*
X3344519Y1337133D01*
X3345460Y1336690D01*
X3346512Y1336303D01*
X3346568D01*
X3346678Y1336247D01*
X3346844Y1336192D01*
X3347066Y1336137D01*
X3347343Y1336081D01*
X3347730Y1335970D01*
X3348118Y1335860D01*
X3348561Y1335749D01*
X3349668Y1335583D01*
X3350942Y1335417D01*
X3352382Y1335306D01*
X3353932Y1335251D01*
X3353987D01*
X3354209D01*
X3354486D01*
X3354929Y1335306D01*
X3355427D01*
X3355981Y1335361D01*
X3356645Y1335417D01*
X3357310Y1335472D01*
X3358805Y1335749D01*
X3360355Y1336081D01*
X3361795Y1336579D01*
X3362515Y1336912D01*
X3363124Y1337244D01*
X3363179D01*
X3363290Y1337355D01*
X3363456Y1337465D01*
X3363678Y1337576D01*
X3364231Y1338019D01*
X3364896Y1338573D01*
X3365616Y1339293D01*
X3366335Y1340123D01*
X3366944Y1341065D01*
X3367443Y1342061D01*
X3367498Y1342172D01*
X3367554Y1342449D01*
X3367720Y1342947D01*
X3367886Y1343667D01*
X3367997Y1344553D01*
X3368163Y1345661D01*
X3368218Y1346325D01*
Y1347045D01*
X3368273Y1347765D01*
Y1356624D01*
D02*
G37*
%LPD*%
%TF.MD5,8a0d1fb8e9ae4627f55d5c729b77b203*%
M02*
