%TF.GenerationSoftware,Altium Limited,Altium Designer,25.3.3 (18)*%
G04 Layer_Color=16711935*
%FSLAX45Y45*%
%MOMM*%
%TF.SameCoordinates,F76437CA-266C-4EF0-AB4E-77791E4FF534*%
%TF.FilePolarity,Negative*%
%TF.FileFunction,Soldermask,Bot*%
%TF.Part,Single*%
G01*
G75*
%TA.AperFunction,ComponentPad*%
%ADD25C,1.57000*%
%ADD26R,1.57000X1.57000*%
%ADD27C,1.39000*%
%ADD28R,1.39000X1.39000*%
%ADD29R,1.39000X1.39000*%
%TA.AperFunction,ViaPad*%
%ADD49C,2.03200*%
%TA.AperFunction,SMDPad,CuDef*%
%ADD50C,1.52400*%
%TA.AperFunction,ComponentPad*%
%ADD51C,2.05800*%
%ADD52R,2.05800X2.05800*%
%ADD53R,2.05800X2.05800*%
%ADD54R,2.00800X2.00800*%
%ADD55C,2.00800*%
%TA.AperFunction,ViaPad*%
%ADD57C,1.01600*%
D25*
X3149121Y254000D02*
D03*
X2895121D02*
D03*
X2641121D02*
D03*
X2387121D02*
D03*
X2133121D02*
D03*
D26*
X1879121D02*
D03*
D27*
X469499Y1408996D02*
D03*
X508000Y3243998D02*
D03*
D28*
X269499Y1408996D02*
D03*
D29*
X508000Y3443998D02*
D03*
D49*
X4307498Y3556000D02*
D03*
Y254000D02*
D03*
D50*
X256997D02*
D03*
X3751539Y269231D02*
D03*
X3827560Y3556000D02*
D03*
D51*
X2843000Y3048002D02*
D03*
X2335000D02*
D03*
X2589000D02*
D03*
X4063998Y3006000D02*
D03*
Y2498000D02*
D03*
Y2752000D02*
D03*
Y1699231D02*
D03*
Y1191231D02*
D03*
Y1445231D02*
D03*
D52*
X2081000Y3048002D02*
D03*
D53*
X4063998Y2244000D02*
D03*
Y937231D02*
D03*
D54*
X1495001Y2278002D02*
D03*
D55*
Y1628000D02*
D03*
X1044999D02*
D03*
D57*
X3157955Y648745D02*
D03*
X655499Y2858159D02*
D03*
X2016002Y1087508D02*
D03*
X1672501Y1790996D02*
D03*
X937472Y2538117D02*
D03*
X3482196Y2346545D02*
D03*
X1219798Y3012175D02*
D03*
X762000Y858614D02*
D03*
X354498Y2076000D02*
D03*
X3693590Y2053002D02*
D03*
%TF.MD5,a5c1a504794738a5f072f95fc1ee34fe*%
M02*
