%TF.GenerationSoftware,Altium Limited,Altium Designer,25.3.3 (18)*%
G04 Layer_Color=2752767*
%FSLAX45Y45*%
%MOMM*%
%TF.SameCoordinates,F76437CA-266C-4EF0-AB4E-77791E4FF534*%
%TF.FilePolarity,Positive*%
%TF.FileFunction,Drawing*%
%TF.Part,Single*%
G01*
G75*
%TA.AperFunction,NonConductor*%
%ADD40C,0.12700*%
%ADD70C,0.16933*%
D40*
X4307498Y3505200D02*
X4256698Y3606800D01*
X4358298D01*
X4307498Y3505200D01*
Y203200D02*
X4256698Y304800D01*
X4358298D01*
X4307498Y203200D01*
X3149121D02*
X3174521Y228600D01*
X3199921D01*
X3174521Y254000D01*
X3199921Y279400D01*
X3174521D01*
X3149121Y304800D01*
X3123721Y279400D01*
X3098321D01*
X3123721Y254000D01*
X3098321Y228600D01*
X3123721D01*
X3149121Y203200D01*
X2895121D02*
X2920521Y228600D01*
X2945921D01*
X2920521Y254000D01*
X2945921Y279400D01*
X2920521D01*
X2895121Y304800D01*
X2869721Y279400D01*
X2844321D01*
X2869721Y254000D01*
X2844321Y228600D01*
X2869721D01*
X2895121Y203200D01*
X2641121D02*
X2666521Y228600D01*
X2691921D01*
X2666521Y254000D01*
X2691921Y279400D01*
X2666521D01*
X2641121Y304800D01*
X2615721Y279400D01*
X2590321D01*
X2615721Y254000D01*
X2590321Y228600D01*
X2615721D01*
X2641121Y203200D01*
X2387121D02*
X2412521Y228600D01*
X2437921D01*
X2412521Y254000D01*
X2437921Y279400D01*
X2412521D01*
X2387121Y304800D01*
X2361721Y279400D01*
X2336321D01*
X2361721Y254000D01*
X2336321Y228600D01*
X2361721D01*
X2387121Y203200D01*
X2133121D02*
X2158521Y228600D01*
X2183921D01*
X2158521Y254000D01*
X2183921Y279400D01*
X2158521D01*
X2133121Y304800D01*
X2107721Y279400D01*
X2082321D01*
X2107721Y254000D01*
X2082321Y228600D01*
X2107721D01*
X2133121Y203200D01*
X1879121D02*
X1904521Y228600D01*
X1929921D01*
X1904521Y254000D01*
X1929921Y279400D01*
X1904521D01*
X1879121Y304800D01*
X1853721Y279400D01*
X1828321D01*
X1853721Y254000D01*
X1828321Y228600D01*
X1853721D01*
X1879121Y203200D01*
X418699Y1358196D02*
Y1459796D01*
X520299D01*
Y1358196D01*
X418699D01*
X218699D02*
Y1459796D01*
X320299D01*
Y1358196D01*
X218699D01*
X457200Y3193198D02*
Y3294798D01*
X558800D01*
Y3193198D01*
X457200D01*
Y3393198D02*
Y3494798D01*
X558800D01*
Y3393198D01*
X457200D01*
X2843000Y2997202D02*
X2868400Y3022602D01*
X2893800D01*
X2868400Y3048002D01*
X2893800Y3073402D01*
X2868400D01*
X2843000Y3098802D01*
X2817600Y3073402D01*
X2792200D01*
X2817600Y3048002D01*
X2792200Y3022602D01*
X2817600D01*
X2843000Y2997202D01*
X2081000D02*
X2106400Y3022602D01*
X2131800D01*
X2106400Y3048002D01*
X2131800Y3073402D01*
X2106400D01*
X2081000Y3098802D01*
X2055600Y3073402D01*
X2030200D01*
X2055600Y3048002D01*
X2030200Y3022602D01*
X2055600D01*
X2081000Y2997202D01*
X2335000D02*
X2360400Y3022602D01*
X2385800D01*
X2360400Y3048002D01*
X2385800Y3073402D01*
X2360400D01*
X2335000Y3098802D01*
X2309600Y3073402D01*
X2284200D01*
X2309600Y3048002D01*
X2284200Y3022602D01*
X2309600D01*
X2335000Y2997202D01*
X2589000D02*
X2614400Y3022602D01*
X2639800D01*
X2614400Y3048002D01*
X2639800Y3073402D01*
X2614400D01*
X2589000Y3098802D01*
X2563600Y3073402D01*
X2538200D01*
X2563600Y3048002D01*
X2538200Y3022602D01*
X2563600D01*
X2589000Y2997202D01*
X4063998Y2955200D02*
X4089398Y2980600D01*
X4114798D01*
X4089398Y3006000D01*
X4114798Y3031400D01*
X4089398D01*
X4063998Y3056800D01*
X4038598Y3031400D01*
X4013198D01*
X4038598Y3006000D01*
X4013198Y2980600D01*
X4038598D01*
X4063998Y2955200D01*
Y2193200D02*
X4089398Y2218600D01*
X4114798D01*
X4089398Y2244000D01*
X4114798Y2269400D01*
X4089398D01*
X4063998Y2294800D01*
X4038598Y2269400D01*
X4013198D01*
X4038598Y2244000D01*
X4013198Y2218600D01*
X4038598D01*
X4063998Y2193200D01*
Y2447200D02*
X4089398Y2472600D01*
X4114798D01*
X4089398Y2498000D01*
X4114798Y2523400D01*
X4089398D01*
X4063998Y2548800D01*
X4038598Y2523400D01*
X4013198D01*
X4038598Y2498000D01*
X4013198Y2472600D01*
X4038598D01*
X4063998Y2447200D01*
Y2701200D02*
X4089398Y2726600D01*
X4114798D01*
X4089398Y2752000D01*
X4114798Y2777400D01*
X4089398D01*
X4063998Y2802800D01*
X4038598Y2777400D01*
X4013198D01*
X4038598Y2752000D01*
X4013198Y2726600D01*
X4038598D01*
X4063998Y2701200D01*
Y1648431D02*
X4089398Y1673831D01*
X4114798D01*
X4089398Y1699231D01*
X4114798Y1724631D01*
X4089398D01*
X4063998Y1750031D01*
X4038598Y1724631D01*
X4013198D01*
X4038598Y1699231D01*
X4013198Y1673831D01*
X4038598D01*
X4063998Y1648431D01*
Y886431D02*
X4089398Y911831D01*
X4114798D01*
X4089398Y937231D01*
X4114798Y962631D01*
X4089398D01*
X4063998Y988031D01*
X4038598Y962631D01*
X4013198D01*
X4038598Y937231D01*
X4013198Y911831D01*
X4038598D01*
X4063998Y886431D01*
Y1140431D02*
X4089398Y1165831D01*
X4114798D01*
X4089398Y1191231D01*
X4114798Y1216631D01*
X4089398D01*
X4063998Y1242031D01*
X4038598Y1216631D01*
X4013198D01*
X4038598Y1191231D01*
X4013198Y1165831D01*
X4038598D01*
X4063998Y1140431D01*
Y1394431D02*
X4089398Y1419831D01*
X4114798D01*
X4089398Y1445231D01*
X4114798Y1470631D01*
X4089398D01*
X4063998Y1496031D01*
X4038598Y1470631D01*
X4013198D01*
X4038598Y1445231D01*
X4013198Y1419831D01*
X4038598D01*
X4063998Y1394431D01*
X3107155Y597945D02*
X3132555Y648745D01*
X3107155Y699545D01*
X3157955Y674145D01*
X3208755Y699545D01*
X3183355Y648745D01*
X3208755Y597945D01*
X3157955Y623345D01*
X3107155Y597945D01*
X604699Y2807359D02*
X630099Y2858159D01*
X604699Y2908959D01*
X655499Y2883559D01*
X706299Y2908959D01*
X680899Y2858159D01*
X706299Y2807359D01*
X655499Y2832759D01*
X604699Y2807359D01*
X1965202Y1036708D02*
X1990602Y1087508D01*
X1965202Y1138308D01*
X2016002Y1112908D01*
X2066802Y1138308D01*
X2041402Y1087508D01*
X2066802Y1036708D01*
X2016002Y1062108D01*
X1965202Y1036708D01*
X1621701Y1740196D02*
X1647101Y1790996D01*
X1621701Y1841796D01*
X1672501Y1816396D01*
X1723301Y1841796D01*
X1697901Y1790996D01*
X1723301Y1740196D01*
X1672501Y1765596D01*
X1621701Y1740196D01*
X886672Y2487317D02*
X912072Y2538117D01*
X886672Y2588917D01*
X937472Y2563517D01*
X988272Y2588917D01*
X962872Y2538117D01*
X988272Y2487317D01*
X937472Y2512717D01*
X886672Y2487317D01*
X3431396Y2295745D02*
X3456796Y2346545D01*
X3431396Y2397345D01*
X3482196Y2371945D01*
X3532996Y2397345D01*
X3507596Y2346545D01*
X3532996Y2295745D01*
X3482196Y2321145D01*
X3431396Y2295745D01*
X1168998Y2961375D02*
X1194398Y3012175D01*
X1168998Y3062975D01*
X1219798Y3037575D01*
X1270598Y3062975D01*
X1245198Y3012175D01*
X1270598Y2961375D01*
X1219798Y2986775D01*
X1168998Y2961375D01*
X711200Y807814D02*
X736600Y858614D01*
X711200Y909414D01*
X762000Y884014D01*
X812800Y909414D01*
X787400Y858614D01*
X812800Y807814D01*
X762000Y833214D01*
X711200Y807814D01*
X303698Y2025200D02*
X329098Y2076000D01*
X303698Y2126800D01*
X354498Y2101400D01*
X405298Y2126800D01*
X379898Y2076000D01*
X405298Y2025200D01*
X354498Y2050600D01*
X303698Y2025200D01*
X3642790Y2002202D02*
X3668190Y2053002D01*
X3642790Y2103802D01*
X3693590Y2078402D01*
X3744390Y2103802D01*
X3718990Y2053002D01*
X3744390Y2002202D01*
X3693590Y2027602D01*
X3642790Y2002202D01*
D70*
X1545801Y2278002D02*
G03*
X1545801Y2278002I-50800J0D01*
G01*
Y1628000D02*
G03*
X1545801Y1628000I-50800J0D01*
G01*
X1095799D02*
G03*
X1095799Y1628000I-50800J0D01*
G01*
Y2278002D02*
G03*
X1095799Y2278002I-50800J0D01*
G01*
%TF.MD5,99adad8cf77938b7fa01926c75694a88*%
M02*
