%TF.GenerationSoftware,Altium Limited,Altium Designer,25.3.3 (18)*%
G04 Layer_Color=16711935*
%FSLAX45Y45*%
%MOMM*%
%TF.SameCoordinates,F76437CA-266C-4EF0-AB4E-77791E4FF534*%
%TF.FilePolarity,Positive*%
%TF.FileFunction,Other,Top_Assembly*%
%TF.Part,Single*%
G01*
G75*
%TA.AperFunction,NonConductor*%
%ADD38C,0.20000*%
%ADD58C,0.10000*%
G36*
X350890Y2497036D02*
X350798D01*
X350428D01*
X349873D01*
X349133Y2497129D01*
X348301Y2497221D01*
X347377Y2497406D01*
X346452Y2497591D01*
X345435Y2497961D01*
X345343D01*
X345250Y2498053D01*
X344696Y2498238D01*
X343863Y2498608D01*
X342754Y2499163D01*
X341460Y2499903D01*
X339980Y2500827D01*
X338501Y2501844D01*
X336929Y2503139D01*
X336837D01*
X336744Y2503323D01*
X336190Y2503786D01*
X335357Y2504618D01*
X334156Y2505820D01*
X332769Y2507207D01*
X331104Y2508963D01*
X329255Y2511090D01*
X327314Y2513401D01*
X327221Y2513494D01*
X326944Y2513863D01*
X326482Y2514418D01*
X325927Y2515065D01*
X325187Y2515897D01*
X324355Y2516914D01*
X323431Y2517931D01*
X322414Y2519133D01*
X320195Y2521445D01*
X317976Y2523756D01*
X316866Y2524866D01*
X315757Y2525883D01*
X314740Y2526807D01*
X313723Y2527547D01*
X313630D01*
X313538Y2527732D01*
X313260Y2527917D01*
X312891Y2528102D01*
X311874Y2528749D01*
X310672Y2529488D01*
X309192Y2530136D01*
X307621Y2530783D01*
X305864Y2531153D01*
X304200Y2531338D01*
X304107D01*
X304015D01*
X303460Y2531245D01*
X302536Y2531153D01*
X301519Y2530875D01*
X300224Y2530505D01*
X298930Y2529858D01*
X297635Y2529026D01*
X296341Y2527917D01*
X296156Y2527732D01*
X295786Y2527270D01*
X295324Y2526622D01*
X294677Y2525605D01*
X294122Y2524311D01*
X293567Y2522832D01*
X293198Y2521075D01*
X293105Y2519133D01*
Y2518579D01*
X293198Y2518209D01*
X293290Y2517099D01*
X293567Y2515805D01*
X293937Y2514418D01*
X294584Y2512846D01*
X295416Y2511367D01*
X296526Y2509980D01*
X296711Y2509795D01*
X297173Y2509426D01*
X297913Y2508871D01*
X299022Y2508316D01*
X300317Y2507669D01*
X301981Y2507114D01*
X303830Y2506744D01*
X305956Y2506559D01*
X305124Y2498516D01*
X305032D01*
X304755Y2498608D01*
X304292D01*
X303645Y2498701D01*
X302905Y2498886D01*
X302073Y2499070D01*
X301056Y2499348D01*
X300039Y2499625D01*
X297820Y2500365D01*
X295601Y2501474D01*
X294492Y2502121D01*
X293382Y2502954D01*
X292365Y2503786D01*
X291441Y2504710D01*
X291348Y2504803D01*
X291256Y2504988D01*
X290979Y2505265D01*
X290701Y2505727D01*
X290331Y2506282D01*
X289962Y2506929D01*
X289499Y2507669D01*
X289037Y2508593D01*
X288575Y2509610D01*
X288112Y2510720D01*
X287743Y2511922D01*
X287373Y2513216D01*
X287095Y2514603D01*
X286818Y2516082D01*
X286726Y2517654D01*
X286633Y2519318D01*
Y2520243D01*
X286726Y2520890D01*
X286818Y2521630D01*
X286911Y2522554D01*
X287095Y2523571D01*
X287280Y2524588D01*
X287928Y2526992D01*
X288852Y2529396D01*
X289407Y2530598D01*
X290054Y2531800D01*
X290886Y2532909D01*
X291811Y2533926D01*
X291903Y2534019D01*
X291996Y2534204D01*
X292365Y2534389D01*
X292735Y2534758D01*
X293198Y2535221D01*
X293845Y2535683D01*
X294492Y2536145D01*
X295324Y2536700D01*
X297081Y2537625D01*
X299300Y2538549D01*
X300409Y2538919D01*
X301703Y2539104D01*
X302998Y2539289D01*
X304385Y2539381D01*
X304570D01*
X305032D01*
X305772Y2539289D01*
X306789Y2539196D01*
X307898Y2539011D01*
X309192Y2538642D01*
X310579Y2538272D01*
X311966Y2537717D01*
X312151Y2537625D01*
X312613Y2537440D01*
X313353Y2537070D01*
X314370Y2536515D01*
X315479Y2535775D01*
X316866Y2534851D01*
X318253Y2533741D01*
X319825Y2532447D01*
X320010Y2532262D01*
X320565Y2531800D01*
X321027Y2531338D01*
X321489Y2530875D01*
X322044Y2530321D01*
X322783Y2529581D01*
X323523Y2528841D01*
X324355Y2527917D01*
X325280Y2526992D01*
X326297Y2525883D01*
X327314Y2524681D01*
X328516Y2523386D01*
X329718Y2521907D01*
X331012Y2520428D01*
X331104Y2520335D01*
X331289Y2520150D01*
X331567Y2519781D01*
X331937Y2519318D01*
X332491Y2518764D01*
X333046Y2518116D01*
X334248Y2516637D01*
X335635Y2515065D01*
X337022Y2513586D01*
X338224Y2512292D01*
X338686Y2511737D01*
X339148Y2511275D01*
X339241Y2511182D01*
X339518Y2510905D01*
X339888Y2510535D01*
X340443Y2510073D01*
X341090Y2509610D01*
X341737Y2509056D01*
X343309Y2507946D01*
Y2539474D01*
X350890D01*
Y2497036D01*
D02*
G37*
G36*
X326297Y2487144D02*
X327221D01*
X328331Y2487051D01*
X329440Y2486959D01*
X331937Y2486681D01*
X334525Y2486312D01*
X337022Y2485757D01*
X338224Y2485387D01*
X339333Y2485017D01*
X339426D01*
X339610Y2484925D01*
X339888Y2484740D01*
X340258Y2484555D01*
X341275Y2484000D01*
X342569Y2483168D01*
X344048Y2482059D01*
X345528Y2480764D01*
X347099Y2479100D01*
X348486Y2477066D01*
Y2476973D01*
X348671Y2476789D01*
X348764Y2476511D01*
X349041Y2476049D01*
X349318Y2475494D01*
X349596Y2474755D01*
X349873Y2474015D01*
X350243Y2473090D01*
X350613Y2472073D01*
X350890Y2470964D01*
X351167Y2469762D01*
X351445Y2468375D01*
X351630Y2466988D01*
X351815Y2465509D01*
X352000Y2462180D01*
Y2461348D01*
X351907Y2460701D01*
Y2459962D01*
X351815Y2459037D01*
X351722Y2458020D01*
X351630Y2457003D01*
X351260Y2454692D01*
X350705Y2452195D01*
X349966Y2449791D01*
X348949Y2447480D01*
Y2447388D01*
X348764Y2447203D01*
X348579Y2446925D01*
X348394Y2446555D01*
X347654Y2445538D01*
X346637Y2444336D01*
X345343Y2442950D01*
X343863Y2441655D01*
X342014Y2440361D01*
X339980Y2439344D01*
X339888D01*
X339703Y2439251D01*
X339333Y2439159D01*
X338871Y2438974D01*
X338316Y2438789D01*
X337576Y2438604D01*
X336744Y2438327D01*
X335727Y2438142D01*
X334618Y2437957D01*
X333416Y2437680D01*
X332122Y2437495D01*
X330735Y2437310D01*
X329163Y2437125D01*
X327499Y2437032D01*
X325742Y2436940D01*
X323893D01*
X286911D01*
Y2445446D01*
X323893D01*
X323985D01*
X324263D01*
X324725D01*
X325280D01*
X325927Y2445538D01*
X326759D01*
X328516Y2445631D01*
X330550Y2445816D01*
X332584Y2446093D01*
X334525Y2446463D01*
X335357Y2446648D01*
X336190Y2446925D01*
X336374Y2447018D01*
X336837Y2447203D01*
X337484Y2447665D01*
X338409Y2448220D01*
X339333Y2448867D01*
X340350Y2449791D01*
X341367Y2450901D01*
X342199Y2452195D01*
X342292Y2452380D01*
X342569Y2452842D01*
X342846Y2453675D01*
X343216Y2454784D01*
X343679Y2456078D01*
X343956Y2457743D01*
X344233Y2459499D01*
X344326Y2461441D01*
Y2462365D01*
X344233Y2462920D01*
Y2463752D01*
X344141Y2464584D01*
X343771Y2466618D01*
X343309Y2468837D01*
X342569Y2470964D01*
X341552Y2472998D01*
X340905Y2473922D01*
X340165Y2474755D01*
X340073Y2474847D01*
X339980Y2474939D01*
X339703Y2475124D01*
X339333Y2475402D01*
X338778Y2475679D01*
X338224Y2476049D01*
X337392Y2476419D01*
X336559Y2476789D01*
X335542Y2477158D01*
X334340Y2477436D01*
X332954Y2477806D01*
X331474Y2478083D01*
X329810Y2478360D01*
X328053Y2478545D01*
X326019Y2478730D01*
X323893D01*
X286911D01*
Y2487236D01*
X323893D01*
X323985D01*
X324355D01*
X324817D01*
X325465D01*
X326297Y2487144D01*
D02*
G37*
G36*
X568463Y1429336D02*
X544147D01*
Y1437195D01*
X568463D01*
Y1429336D01*
D02*
G37*
G36*
X449287D02*
X424971D01*
Y1437195D01*
X449287D01*
Y1429336D01*
D02*
G37*
G36*
X534069Y1410106D02*
X525286D01*
X491817Y1460309D01*
Y1410106D01*
X483681D01*
Y1474085D01*
X492371D01*
X525933Y1423789D01*
Y1474085D01*
X534069D01*
Y1410106D01*
D02*
G37*
G36*
X654724D02*
X645941D01*
X621163Y1474085D01*
X630408D01*
X647050Y1427580D01*
Y1427487D01*
X647143Y1427302D01*
X647235Y1427025D01*
X647420Y1426655D01*
X647513Y1426101D01*
X647697Y1425546D01*
X648160Y1424159D01*
X648714Y1422587D01*
X649269Y1420831D01*
X650379Y1417132D01*
Y1417225D01*
X650471Y1417410D01*
X650564Y1417687D01*
X650656Y1418057D01*
X650933Y1419074D01*
X651396Y1420461D01*
X651858Y1422032D01*
X652413Y1423789D01*
X653060Y1425638D01*
X653800Y1427580D01*
X671181Y1474085D01*
X679780D01*
X654724Y1410106D01*
D02*
G37*
G36*
X614228Y1465764D02*
X588618D01*
X585197Y1448475D01*
X585290Y1448567D01*
X585475Y1448660D01*
X585752Y1448845D01*
X586214Y1449122D01*
X586769Y1449399D01*
X587416Y1449769D01*
X588895Y1450509D01*
X590745Y1451249D01*
X592779Y1451896D01*
X594998Y1452358D01*
X596107Y1452543D01*
X598141D01*
X598696Y1452450D01*
X599435Y1452358D01*
X600268Y1452266D01*
X601192Y1452081D01*
X602209Y1451803D01*
X604428Y1451156D01*
X605630Y1450694D01*
X606832Y1450047D01*
X608034Y1449399D01*
X609236Y1448660D01*
X610345Y1447735D01*
X611455Y1446718D01*
X611547Y1446626D01*
X611732Y1446441D01*
X612009Y1446163D01*
X612379Y1445701D01*
X612842Y1445054D01*
X613304Y1444407D01*
X613859Y1443575D01*
X614413Y1442650D01*
X614876Y1441633D01*
X615430Y1440524D01*
X615893Y1439229D01*
X616355Y1437935D01*
X616725Y1436548D01*
X617002Y1434976D01*
X617187Y1433405D01*
X617279Y1431740D01*
Y1431648D01*
Y1431371D01*
Y1430908D01*
X617187Y1430261D01*
X617095Y1429521D01*
X617002Y1428689D01*
X616817Y1427672D01*
X616632Y1426655D01*
X616078Y1424251D01*
X615153Y1421755D01*
X614598Y1420461D01*
X613859Y1419259D01*
X613119Y1417964D01*
X612194Y1416762D01*
X612102Y1416670D01*
X611917Y1416393D01*
X611547Y1416023D01*
X611085Y1415561D01*
X610438Y1415006D01*
X609698Y1414266D01*
X608773Y1413619D01*
X607756Y1412879D01*
X606647Y1412140D01*
X605353Y1411492D01*
X603966Y1410845D01*
X602486Y1410198D01*
X600915Y1409736D01*
X599158Y1409366D01*
X597309Y1409089D01*
X595367Y1408996D01*
X594535D01*
X593888Y1409089D01*
X593148Y1409181D01*
X592316Y1409274D01*
X591299Y1409366D01*
X590282Y1409643D01*
X587971Y1410198D01*
X585659Y1411030D01*
X584458Y1411585D01*
X583256Y1412232D01*
X582146Y1412972D01*
X581037Y1413804D01*
X580944Y1413896D01*
X580759Y1413989D01*
X580574Y1414359D01*
X580205Y1414728D01*
X579742Y1415191D01*
X579280Y1415745D01*
X578725Y1416485D01*
X578263Y1417317D01*
X577708Y1418149D01*
X577154Y1419166D01*
X576137Y1421385D01*
X575304Y1423974D01*
X575027Y1425361D01*
X574842Y1426840D01*
X583071Y1427487D01*
Y1427395D01*
Y1427210D01*
X583163Y1426933D01*
X583256Y1426470D01*
X583533Y1425453D01*
X583903Y1424066D01*
X584458Y1422680D01*
X585197Y1421108D01*
X586122Y1419721D01*
X587231Y1418427D01*
X587416Y1418334D01*
X587786Y1417964D01*
X588526Y1417502D01*
X589543Y1416947D01*
X590652Y1416393D01*
X592039Y1415930D01*
X593611Y1415561D01*
X595367Y1415468D01*
X595922D01*
X596292Y1415561D01*
X597401Y1415653D01*
X598696Y1416023D01*
X600268Y1416485D01*
X601839Y1417225D01*
X603503Y1418334D01*
X604243Y1418981D01*
X604983Y1419721D01*
X605075Y1419814D01*
X605168Y1419906D01*
X605353Y1420183D01*
X605630Y1420461D01*
X606277Y1421478D01*
X607017Y1422772D01*
X607664Y1424344D01*
X608311Y1426285D01*
X608773Y1428597D01*
X608958Y1429799D01*
Y1431093D01*
Y1431186D01*
Y1431371D01*
Y1431740D01*
X608866Y1432203D01*
Y1432757D01*
X608773Y1433405D01*
X608496Y1434884D01*
X608034Y1436641D01*
X607387Y1438397D01*
X606462Y1440061D01*
X605168Y1441633D01*
Y1441726D01*
X604983Y1441818D01*
X604521Y1442280D01*
X603688Y1442928D01*
X602579Y1443667D01*
X601100Y1444314D01*
X599435Y1444962D01*
X597494Y1445424D01*
X596384Y1445609D01*
X594628D01*
X593888Y1445516D01*
X592964Y1445424D01*
X591854Y1445146D01*
X590745Y1444869D01*
X589543Y1444407D01*
X588341Y1443852D01*
X588248Y1443760D01*
X587878Y1443575D01*
X587324Y1443112D01*
X586584Y1442650D01*
X585844Y1442003D01*
X585105Y1441171D01*
X584273Y1440339D01*
X583625Y1439322D01*
X576229Y1440339D01*
X582424Y1473253D01*
X614228D01*
Y1465764D01*
D02*
G37*
G36*
X468795Y1410106D02*
X460289D01*
Y1474085D01*
X468795D01*
Y1410106D01*
D02*
G37*
G36*
X397142Y1473993D02*
X398713Y1473900D01*
X400378Y1473808D01*
X401949Y1473623D01*
X403336Y1473438D01*
X403521D01*
X404168Y1473253D01*
X405000Y1473068D01*
X406110Y1472791D01*
X407312Y1472329D01*
X408606Y1471774D01*
X409993Y1471127D01*
X411195Y1470387D01*
X411380Y1470294D01*
X411750Y1470017D01*
X412304Y1469462D01*
X413044Y1468815D01*
X413876Y1467983D01*
X414708Y1466874D01*
X415633Y1465672D01*
X416373Y1464285D01*
X416465Y1464100D01*
X416650Y1463638D01*
X417020Y1462806D01*
X417390Y1461696D01*
X417667Y1460402D01*
X418037Y1458922D01*
X418222Y1457258D01*
X418314Y1455502D01*
Y1455409D01*
Y1455132D01*
Y1454762D01*
X418222Y1454115D01*
X418129Y1453468D01*
X418037Y1452635D01*
X417852Y1451711D01*
X417667Y1450694D01*
X417020Y1448567D01*
X416650Y1447458D01*
X416095Y1446256D01*
X415448Y1445054D01*
X414801Y1443945D01*
X413969Y1442835D01*
X413044Y1441726D01*
X412952Y1441633D01*
X412767Y1441448D01*
X412489Y1441171D01*
X412027Y1440893D01*
X411472Y1440431D01*
X410733Y1439969D01*
X409808Y1439414D01*
X408791Y1438952D01*
X407589Y1438397D01*
X406202Y1437842D01*
X404723Y1437380D01*
X402966Y1437010D01*
X401117Y1436641D01*
X399083Y1436363D01*
X396772Y1436178D01*
X394368Y1436086D01*
X378003D01*
Y1410106D01*
X369497D01*
Y1474085D01*
X395755D01*
X397142Y1473993D01*
D02*
G37*
G36*
X1563212Y791143D02*
X1564044D01*
X1565061Y791050D01*
X1566171Y790866D01*
X1567465Y790681D01*
X1570146Y790218D01*
X1572920Y789479D01*
X1575694Y788462D01*
X1576988Y787815D01*
X1578283Y787075D01*
X1578375Y786982D01*
X1578560Y786890D01*
X1578930Y786613D01*
X1579300Y786243D01*
X1579854Y785873D01*
X1580502Y785318D01*
X1581241Y784671D01*
X1581981Y783931D01*
X1582720Y783099D01*
X1583553Y782267D01*
X1585217Y780141D01*
X1586789Y777644D01*
X1588175Y774871D01*
Y774778D01*
X1588360Y774501D01*
X1588453Y774039D01*
X1588730Y773484D01*
X1588915Y772744D01*
X1589192Y771820D01*
X1589562Y770803D01*
X1589840Y769693D01*
X1590117Y768491D01*
X1590487Y767104D01*
X1590949Y764238D01*
X1591319Y761002D01*
X1591504Y757674D01*
Y757581D01*
Y757212D01*
Y756657D01*
X1591411Y756010D01*
Y755085D01*
X1591319Y754161D01*
X1591226Y752959D01*
X1591042Y751757D01*
X1590579Y749075D01*
X1589932Y746117D01*
X1589007Y743158D01*
X1587713Y740292D01*
X1587621Y740200D01*
X1587528Y739922D01*
X1587343Y739552D01*
X1586973Y739090D01*
X1586604Y738443D01*
X1586141Y737703D01*
X1584939Y736039D01*
X1583368Y734190D01*
X1581519Y732341D01*
X1579392Y730492D01*
X1576896Y728920D01*
X1576803Y728828D01*
X1576526Y728735D01*
X1576156Y728550D01*
X1575694Y728273D01*
X1574954Y727995D01*
X1574215Y727718D01*
X1573290Y727348D01*
X1572273Y726978D01*
X1571163Y726609D01*
X1569962Y726239D01*
X1567373Y725684D01*
X1564414Y725222D01*
X1561363Y725037D01*
X1560439D01*
X1559791Y725129D01*
X1558959Y725222D01*
X1557942Y725314D01*
X1556925Y725407D01*
X1555723Y725684D01*
X1553227Y726239D01*
X1550453Y727071D01*
X1549066Y727626D01*
X1547772Y728273D01*
X1546478Y729105D01*
X1545183Y729937D01*
X1545091Y730030D01*
X1544906Y730122D01*
X1544536Y730399D01*
X1544074Y730862D01*
X1543612Y731324D01*
X1542964Y731971D01*
X1542317Y732711D01*
X1541578Y733450D01*
X1540838Y734375D01*
X1540098Y735484D01*
X1539266Y736594D01*
X1538527Y737796D01*
X1537879Y739183D01*
X1537140Y740570D01*
X1536585Y742049D01*
X1536030Y743713D01*
X1544351Y745655D01*
Y745562D01*
X1544444Y745377D01*
X1544629Y745007D01*
X1544814Y744545D01*
X1544998Y743990D01*
X1545276Y743251D01*
X1546015Y741771D01*
X1546940Y740107D01*
X1548049Y738443D01*
X1549436Y736871D01*
X1550916Y735484D01*
X1551101Y735300D01*
X1551655Y734930D01*
X1552580Y734467D01*
X1553782Y733820D01*
X1555354Y733265D01*
X1557110Y732711D01*
X1559237Y732341D01*
X1561548Y732248D01*
X1562288D01*
X1562750Y732341D01*
X1563397D01*
X1564137Y732433D01*
X1565893Y732711D01*
X1567835Y733081D01*
X1569869Y733728D01*
X1571996Y734652D01*
X1573937Y735854D01*
X1574030D01*
X1574122Y736039D01*
X1574769Y736501D01*
X1575601Y737241D01*
X1576618Y738351D01*
X1577820Y739737D01*
X1578930Y741309D01*
X1579947Y743251D01*
X1580871Y745377D01*
Y745470D01*
X1580964Y745655D01*
X1581056Y745932D01*
X1581149Y746394D01*
X1581334Y746949D01*
X1581519Y747596D01*
X1581796Y749168D01*
X1582166Y751017D01*
X1582536Y753051D01*
X1582720Y755270D01*
X1582813Y757674D01*
Y757766D01*
Y758044D01*
Y758506D01*
Y759061D01*
X1582720Y759708D01*
Y760540D01*
X1582628Y761465D01*
X1582536Y762482D01*
X1582258Y764701D01*
X1581796Y767104D01*
X1581241Y769508D01*
X1580502Y771912D01*
Y772005D01*
X1580409Y772189D01*
X1580224Y772467D01*
X1580039Y772929D01*
X1579485Y774039D01*
X1578652Y775333D01*
X1577635Y776812D01*
X1576341Y778384D01*
X1574862Y779771D01*
X1573105Y781065D01*
X1573013D01*
X1572828Y781158D01*
X1572550Y781343D01*
X1572180Y781528D01*
X1571718Y781712D01*
X1571163Y781990D01*
X1569869Y782545D01*
X1568205Y783099D01*
X1566356Y783562D01*
X1564322Y783931D01*
X1562195Y784024D01*
X1561548D01*
X1560993Y783931D01*
X1560346D01*
X1559699Y783839D01*
X1558035Y783469D01*
X1556093Y783007D01*
X1554152Y782267D01*
X1552118Y781250D01*
X1551101Y780695D01*
X1550176Y779956D01*
X1550084Y779863D01*
X1549991Y779771D01*
X1549714Y779493D01*
X1549344Y779216D01*
X1548974Y778754D01*
X1548512Y778199D01*
X1547957Y777644D01*
X1547495Y776905D01*
X1546940Y776073D01*
X1546293Y775148D01*
X1545738Y774223D01*
X1545183Y773114D01*
X1544721Y771912D01*
X1544259Y770618D01*
X1543797Y769231D01*
X1543427Y767752D01*
X1534921Y769878D01*
Y769971D01*
X1535013Y770340D01*
X1535198Y770895D01*
X1535475Y771635D01*
X1535753Y772467D01*
X1536123Y773484D01*
X1536585Y774593D01*
X1537140Y775795D01*
X1538434Y778384D01*
X1540098Y780973D01*
X1541115Y782267D01*
X1542132Y783562D01*
X1543242Y784671D01*
X1544536Y785780D01*
X1544629Y785873D01*
X1544814Y786058D01*
X1545276Y786243D01*
X1545738Y786613D01*
X1546478Y787075D01*
X1547217Y787537D01*
X1548234Y787999D01*
X1549251Y788462D01*
X1550453Y789016D01*
X1551748Y789479D01*
X1553135Y789941D01*
X1554614Y790403D01*
X1556186Y790773D01*
X1557850Y790958D01*
X1559606Y791143D01*
X1561456Y791235D01*
X1562473D01*
X1563212Y791143D01*
D02*
G37*
G36*
X1518186Y790033D02*
Y789756D01*
Y789386D01*
X1518094Y788832D01*
Y788092D01*
X1518001Y787167D01*
X1517909Y786150D01*
X1517816Y785041D01*
X1517631Y783746D01*
X1517447Y782452D01*
X1517169Y780880D01*
X1516892Y779309D01*
X1516614Y777644D01*
X1516245Y775795D01*
X1515320Y772005D01*
Y771912D01*
X1515228Y771542D01*
X1515043Y770988D01*
X1514765Y770155D01*
X1514488Y769231D01*
X1514118Y768121D01*
X1513748Y766827D01*
X1513194Y765440D01*
X1512639Y763868D01*
X1512084Y762297D01*
X1510697Y758783D01*
X1509033Y755085D01*
X1507184Y751387D01*
X1507091Y751294D01*
X1506907Y750925D01*
X1506629Y750462D01*
X1506259Y749723D01*
X1505797Y748891D01*
X1505150Y747874D01*
X1504503Y746764D01*
X1503763Y745562D01*
X1502006Y742881D01*
X1500157Y740107D01*
X1498031Y737241D01*
X1495812Y734560D01*
X1527154D01*
Y726978D01*
X1485734D01*
Y733173D01*
X1485827Y733265D01*
X1486012Y733450D01*
X1486381Y733820D01*
X1486751Y734375D01*
X1487306Y735022D01*
X1488046Y735762D01*
X1488785Y736686D01*
X1489617Y737796D01*
X1490449Y738905D01*
X1491466Y740200D01*
X1492483Y741679D01*
X1493500Y743158D01*
X1494610Y744822D01*
X1495719Y746579D01*
X1496829Y748521D01*
X1497938Y750462D01*
X1498031Y750555D01*
X1498216Y750925D01*
X1498493Y751479D01*
X1498955Y752311D01*
X1499418Y753328D01*
X1499972Y754438D01*
X1500620Y755732D01*
X1501267Y757212D01*
X1502006Y758876D01*
X1502838Y760540D01*
X1503578Y762389D01*
X1504318Y764331D01*
X1505797Y768306D01*
X1507184Y772559D01*
Y772652D01*
X1507276Y772929D01*
X1507369Y773391D01*
X1507554Y773946D01*
X1507739Y774686D01*
X1507924Y775610D01*
X1508201Y776627D01*
X1508386Y777737D01*
X1508663Y779031D01*
X1508941Y780418D01*
X1509403Y783377D01*
X1509865Y786613D01*
X1510143Y790126D01*
X1518186D01*
Y790033D01*
D02*
G37*
%LPC*%
G36*
X396310Y1466504D02*
X378003D01*
Y1443667D01*
X395200D01*
X395847Y1443760D01*
X396495D01*
X397234Y1443852D01*
X398991Y1444037D01*
X400932Y1444407D01*
X402874Y1444962D01*
X404631Y1445701D01*
X405463Y1446163D01*
X406110Y1446718D01*
X406295Y1446903D01*
X406665Y1447273D01*
X407219Y1448013D01*
X407867Y1448937D01*
X408514Y1450139D01*
X409069Y1451618D01*
X409438Y1453283D01*
X409623Y1455224D01*
Y1455317D01*
Y1455409D01*
Y1455871D01*
X409531Y1456703D01*
X409346Y1457628D01*
X409161Y1458645D01*
X408791Y1459847D01*
X408236Y1460956D01*
X407589Y1462066D01*
X407497Y1462158D01*
X407219Y1462528D01*
X406757Y1462990D01*
X406202Y1463638D01*
X405370Y1464285D01*
X404446Y1464840D01*
X403429Y1465394D01*
X402227Y1465857D01*
X402134D01*
X401764Y1465949D01*
X401210Y1466042D01*
X400470Y1466226D01*
X399361Y1466319D01*
X397974Y1466411D01*
X396310Y1466504D01*
D02*
G37*
%LPD*%
D38*
X1735771Y117000D02*
Y391000D01*
Y117000D02*
X3292471D01*
Y391000D01*
X1735771D02*
X3292471D01*
X176997Y2226530D02*
Y2647352D01*
X526999D01*
Y2226530D02*
Y2647352D01*
X176997Y2226530D02*
X526999D01*
X159497Y1201996D02*
Y1615995D01*
Y1201996D02*
X579501D01*
Y1615995D01*
X159497D02*
X579501D01*
X301000Y3553995D02*
X715000D01*
X301000Y3133996D02*
Y3553995D01*
Y3133996D02*
X715000D01*
Y3553995D01*
X1425897Y698126D02*
X1757107D01*
X1425897D02*
Y884343D01*
X1757107D01*
Y698126D02*
Y884343D01*
D58*
X2179122Y2238880D02*
G03*
X2179122Y2238880I-50000J0D01*
G01*
X3382196Y2535150D02*
X3492199D01*
X3382196Y2595150D02*
X3492199D01*
Y2535150D02*
Y2595150D01*
X3382196Y2535150D02*
Y2595150D01*
X1684225Y1117931D02*
Y1177931D01*
X1574222Y1117931D02*
Y1177931D01*
Y1117931D02*
X1684225D01*
X1574222Y1177931D02*
X1684225D01*
X236479Y2788429D02*
X446481D01*
X236479Y2923425D02*
X446481D01*
Y2788429D02*
Y2923425D01*
X236479Y2788429D02*
Y2923425D01*
Y1773496D02*
X446481D01*
X236479Y1908497D02*
X446481D01*
Y1773496D02*
Y1908497D01*
X236479Y1773496D02*
Y1908497D01*
X2582503Y3328499D02*
Y3383500D01*
X2687501Y3328499D02*
Y3383500D01*
X2582503D02*
X2687501D01*
X2582503Y3328499D02*
X2687501D01*
X2092501Y2660926D02*
X2152501D01*
X2092501Y2770923D02*
X2152501D01*
X2092501Y2660926D02*
Y2770923D01*
X2152501Y2660926D02*
Y2770923D01*
X2988999Y2921002D02*
Y3175002D01*
X1935001Y2921002D02*
X2988999D01*
X1935001D02*
Y3175002D01*
X2988999D01*
X2327502Y3327498D02*
Y3382499D01*
X2432501Y3327498D02*
Y3382499D01*
X2327502D02*
X2432501D01*
X2327502Y3327498D02*
X2432501D01*
X3319697Y1421106D02*
X3374698D01*
X3319697Y1316108D02*
X3374698D01*
Y1421106D01*
X3319697Y1316108D02*
Y1421106D01*
X3574104Y1173502D02*
X3634103D01*
X3574104Y1283499D02*
X3634103D01*
X3574104Y1173502D02*
Y1283499D01*
X3634103Y1173502D02*
Y1283499D01*
X2039121Y1328879D02*
X3039124D01*
X2039121Y2328882D02*
X3039124D01*
Y1328879D02*
Y2328882D01*
X2039121Y1328879D02*
Y2328882D01*
X1502504Y2723999D02*
Y3053996D01*
X1677500Y2723999D02*
Y3053996D01*
X1502504Y2723999D02*
X1677500D01*
X1502504Y3053996D02*
X1677500D01*
X3936998Y3152000D02*
X4190998D01*
Y2098001D02*
Y3152000D01*
X3936998Y2098001D02*
X4190998D01*
X3936998D02*
Y3152000D01*
Y1845230D02*
X4190998D01*
Y791232D02*
Y1845230D01*
X3936998Y791232D02*
X4190998D01*
X3936998D02*
Y1845230D01*
X969998Y1653004D02*
Y2253003D01*
X1570002Y1653004D02*
Y2253003D01*
X969998Y1653004D02*
X1570002D01*
X969998Y2253003D02*
X1570002D01*
X1072296Y2492652D02*
Y2582649D01*
X1242298Y2492652D02*
Y2582649D01*
X1072296D02*
X1242298D01*
X1072296Y2492652D02*
X1242298D01*
X2071003Y545906D02*
Y605906D01*
X1961001Y545906D02*
Y605906D01*
Y545906D02*
X2071003D01*
X1961001Y605906D02*
X2071003D01*
X3257955Y828617D02*
Y888616D01*
X3147958Y828617D02*
Y888616D01*
Y828617D02*
X3257955D01*
X3147958Y888616D02*
X3257955D01*
X2766617Y988616D02*
X2861618D01*
X2766617Y813615D02*
X2861618D01*
Y988616D01*
X2766617Y813615D02*
Y988616D01*
%TF.MD5,e26e250d7a11f9647e64f10e18851371*%
M02*
