%TF.GenerationSoftware,Altium Limited,Altium Designer,25.3.3 (18)*%
G04 Layer_Color=8421504*
%FSLAX45Y45*%
%MOMM*%
%TF.SameCoordinates,F76437CA-266C-4EF0-AB4E-77791E4FF534*%
%TF.FilePolarity,Positive*%
%TF.FileFunction,Paste,Top*%
%TF.Part,Single*%
G01*
G75*
%TA.AperFunction,SMDPad,CuDef*%
%ADD11R,0.57583X1.40712*%
G04:AMPARAMS|DCode=12|XSize=1.40712mm|YSize=0.57583mm|CornerRadius=0.28791mm|HoleSize=0mm|Usage=FLASHONLY|Rotation=90.000|XOffset=0mm|YOffset=0mm|HoleType=Round|Shape=RoundedRectangle|*
%AMROUNDEDRECTD12*
21,1,1.40712,0.00000,0,0,90.0*
21,1,0.83129,0.57583,0,0,90.0*
1,1,0.57583,0.00000,0.41565*
1,1,0.57583,0.00000,-0.41565*
1,1,0.57583,0.00000,-0.41565*
1,1,0.57583,0.00000,0.41565*
%
%ADD12ROUNDEDRECTD12*%
%ADD18R,1.15776X1.36213*%
G04:AMPARAMS|DCode=41|XSize=1.058mm|YSize=1.008mm|CornerRadius=0.3165mm|HoleSize=0mm|Usage=FLASHONLY|Rotation=90.000|XOffset=0mm|YOffset=0mm|HoleType=Round|Shape=RoundedRectangle|*
%AMROUNDEDRECTD41*
21,1,1.05800,0.37500,0,0,90.0*
21,1,0.42500,1.00800,0,0,90.0*
1,1,0.63300,0.18750,0.21250*
1,1,0.63300,0.18750,-0.21250*
1,1,0.63300,-0.18750,-0.21250*
1,1,0.63300,-0.18750,0.21250*
%
%ADD41ROUNDEDRECTD41*%
%ADD42R,1.70800X1.90800*%
G04:AMPARAMS|DCode=43|XSize=1.058mm|YSize=1.008mm|CornerRadius=0.3165mm|HoleSize=0mm|Usage=FLASHONLY|Rotation=180.000|XOffset=0mm|YOffset=0mm|HoleType=Round|Shape=RoundedRectangle|*
%AMROUNDEDRECTD43*
21,1,1.05800,0.37500,0,0,180.0*
21,1,0.42500,1.00800,0,0,180.0*
1,1,0.63300,-0.21250,0.18750*
1,1,0.63300,0.21250,0.18750*
1,1,0.63300,0.21250,-0.18750*
1,1,0.63300,-0.21250,-0.18750*
%
%ADD43ROUNDEDRECTD43*%
%ADD44O,0.80800X2.10800*%
%ADD45O,2.10800X0.80800*%
%ADD46R,2.35800X1.85800*%
%ADD47R,1.45800X1.45800*%
G04:AMPARAMS|DCode=48|XSize=1.268mm|YSize=1.1684mm|CornerRadius=0.33655mm|HoleSize=0mm|Usage=FLASHONLY|Rotation=0.000|XOffset=0mm|YOffset=0mm|HoleType=Round|Shape=RoundedRectangle|*
%AMROUNDEDRECTD48*
21,1,1.26800,0.49530,0,0,0.0*
21,1,0.59490,1.16840,0,0,0.0*
1,1,0.67310,0.29745,-0.24765*
1,1,0.67310,-0.29745,-0.24765*
1,1,0.67310,-0.29745,0.24765*
1,1,0.67310,0.29745,0.24765*
%
%ADD48ROUNDEDRECTD48*%
G36*
X554499Y1493998D02*
X384499D01*
Y1323997D01*
X430999Y1323997D01*
X433535Y1323748D01*
X438221Y1321807D01*
X441808Y1318220D01*
X443749Y1313534D01*
X443999Y1310997D01*
Y1310997D01*
Y1211997D01*
X494999D01*
Y1310997D01*
X495248Y1313534D01*
X497189Y1318220D01*
X500776Y1321807D01*
X505463Y1323748D01*
X507999Y1323997D01*
X507999D01*
X554499D01*
Y1493998D01*
D02*
G37*
G36*
X184499Y1323997D02*
X354499D01*
Y1493998D01*
X307998D01*
X305462Y1494247D01*
X300776Y1496188D01*
X297189Y1499775D01*
X295248Y1504461D01*
X294999Y1506997D01*
D01*
Y1605998D01*
X243999D01*
X243998Y1506997D01*
X243749Y1504461D01*
X241808Y1499775D01*
X238221Y1496188D01*
X233535Y1494247D01*
X230999Y1493998D01*
D01*
X184499D01*
Y1323997D01*
D02*
G37*
G36*
X592999Y3158996D02*
Y3328996D01*
X422999D01*
X422999Y3282496D01*
X422749Y3279959D01*
X420808Y3275273D01*
X417221Y3271686D01*
X412535Y3269745D01*
X409999Y3269496D01*
X409999Y3269496D01*
X310999D01*
Y3218496D01*
X409999Y3218496D01*
X412535Y3218246D01*
X417222Y3216305D01*
X420808Y3212718D01*
X422749Y3208032D01*
X422999Y3205495D01*
D01*
Y3158996D01*
X592999D01*
D02*
G37*
G36*
X422999Y3528996D02*
Y3358996D01*
X592999D01*
Y3405496D01*
X593249Y3408032D01*
X595190Y3412719D01*
X598777Y3416305D01*
X603463Y3418246D01*
X605999Y3418496D01*
Y3418496D01*
X704999D01*
Y3469496D01*
X605999D01*
X603463Y3469746D01*
X598777Y3471687D01*
X595190Y3475273D01*
X593249Y3479960D01*
X592999Y3482496D01*
Y3482496D01*
Y3528996D01*
X422999D01*
D02*
G37*
D11*
X256997Y2321887D02*
D03*
D12*
X351998D02*
D03*
X446999D02*
D03*
Y2551996D02*
D03*
X256997D02*
D03*
D18*
X1508787Y791232D02*
D03*
X1674222D02*
D03*
D41*
X3392199Y2565148D02*
D03*
X3482196D02*
D03*
X1584225Y1147928D02*
D03*
X1674222D02*
D03*
X2590001Y3356002D02*
D03*
X2680003D02*
D03*
X2335000Y3355001D02*
D03*
X2425003D02*
D03*
X1971003Y575904D02*
D03*
X2061001D02*
D03*
X3157955Y858614D02*
D03*
X3247957D02*
D03*
D42*
X426481Y2855927D02*
D03*
X256479D02*
D03*
X426481Y1840999D02*
D03*
X256479D02*
D03*
D43*
X2122503Y2760926D02*
D03*
Y2670924D02*
D03*
X3347195Y1413608D02*
D03*
Y1323606D02*
D03*
X3604101Y1274000D02*
D03*
Y1183002D02*
D03*
D44*
X2164124Y2408882D02*
D03*
X2214122D02*
D03*
X2264124D02*
D03*
X2314121D02*
D03*
X2364124D02*
D03*
X2414121D02*
D03*
X2464124D02*
D03*
X2514121D02*
D03*
X2564123D02*
D03*
X2614121D02*
D03*
X2664123D02*
D03*
X2714121D02*
D03*
X2764123D02*
D03*
X2814120D02*
D03*
X2864123D02*
D03*
X2914120D02*
D03*
Y1248879D02*
D03*
X2864123D02*
D03*
X2814120D02*
D03*
X2764123D02*
D03*
X2714121D02*
D03*
X2664123D02*
D03*
X2614121D02*
D03*
X2564123D02*
D03*
X2514121D02*
D03*
X2464124D02*
D03*
X2414121D02*
D03*
X2364124D02*
D03*
X2314121D02*
D03*
X2264124D02*
D03*
X2214122D02*
D03*
X2164124D02*
D03*
D45*
X3119124Y2203878D02*
D03*
Y2153881D02*
D03*
Y2103879D02*
D03*
Y2053881D02*
D03*
Y2003879D02*
D03*
Y1953882D02*
D03*
Y1903879D02*
D03*
Y1853882D02*
D03*
Y1803879D02*
D03*
Y1753882D02*
D03*
Y1703879D02*
D03*
Y1653882D02*
D03*
Y1603880D02*
D03*
Y1553882D02*
D03*
Y1503880D02*
D03*
Y1453883D02*
D03*
X1959121D02*
D03*
Y1503880D02*
D03*
Y1553882D02*
D03*
Y1603880D02*
D03*
Y1653882D02*
D03*
Y1703879D02*
D03*
Y1753882D02*
D03*
Y1803879D02*
D03*
Y1853882D02*
D03*
Y1903879D02*
D03*
Y1953882D02*
D03*
Y2003879D02*
D03*
Y2053881D02*
D03*
Y2103879D02*
D03*
Y2153881D02*
D03*
Y2203878D02*
D03*
D46*
X1590002Y2736496D02*
D03*
Y3041499D02*
D03*
D47*
X1094800Y2537650D02*
D03*
X1219798D02*
D03*
D48*
X2814120Y831116D02*
D03*
Y971116D02*
D03*
%TF.MD5,2fba3b45304234fcb96caf9ab3cd53ab*%
M02*
