%TF.GenerationSoftware,Altium Limited,Altium Designer,25.3.3 (18)*%
G04 Layer_Color=32768*
%FSLAX45Y45*%
%MOMM*%
%TF.SameCoordinates,F76437CA-266C-4EF0-AB4E-77791E4FF534*%
%TF.FilePolarity,Positive*%
%TF.FileFunction,Other,Top_Courtyard*%
%TF.Part,Single*%
G01*
G75*
%TA.AperFunction,NonConductor*%
%ADD38C,0.20000*%
%ADD58C,0.10000*%
%ADD59C,0.05000*%
D38*
X1735771Y117000D02*
Y391000D01*
Y117000D02*
X3292471D01*
Y391000D01*
X1735771D02*
X3292471D01*
X176997Y2226530D02*
Y2647352D01*
X526999D01*
Y2226530D02*
Y2647352D01*
X176997Y2226530D02*
X526999D01*
X159497Y1201996D02*
Y1615995D01*
Y1201996D02*
X579501D01*
Y1615995D01*
X159497D02*
X579501D01*
X301000Y3553995D02*
X715000D01*
X301000Y3133996D02*
Y3553995D01*
Y3133996D02*
X715000D01*
Y3553995D01*
X1425897Y698126D02*
X1757107D01*
X1425897D02*
Y884343D01*
X1757107D01*
Y698126D02*
Y884343D01*
D58*
X341478Y2805925D02*
Y2905929D01*
X291480Y2855927D02*
X391480D01*
X341478Y1790996D02*
Y1890996D01*
X291480Y1840999D02*
X391480D01*
X2539125Y1778881D02*
Y1878880D01*
X2489122Y1828878D02*
X2589122D01*
X1540004Y2888998D02*
X1640004D01*
X1590002Y2839000D02*
Y2939000D01*
X1220000Y1953003D02*
X1320000D01*
X1270003Y1903001D02*
Y2003001D01*
X1112295Y2537650D02*
X1202298D01*
X1157299Y2492652D02*
Y2582649D01*
D59*
X3437198Y2537650D02*
Y2592646D01*
X3409694Y2565148D02*
X3464696D01*
X3347195Y2520149D02*
Y2610146D01*
X3527195Y2520149D02*
Y2610146D01*
X3347195D02*
X3527195D01*
X3347195Y2520149D02*
X3527195D01*
X1539221Y1192927D02*
X1719226D01*
X1539221Y1102930D02*
X1719226D01*
X1539221D02*
Y1192927D01*
X1719226Y1102930D02*
Y1192927D01*
X1601726Y1147928D02*
X1656722D01*
X1629224Y1120430D02*
Y1175426D01*
X171480Y2760926D02*
X511480D01*
X171480Y2950928D02*
X511480D01*
Y2760926D02*
Y2950928D01*
X171480Y2760926D02*
Y2950928D01*
Y1745998D02*
X511480D01*
X171480Y1936000D02*
X511480D01*
Y1745998D02*
Y1936000D01*
X171480Y1745998D02*
Y1936000D01*
X2550001Y3310998D02*
Y3401001D01*
X2720003Y3310998D02*
Y3401001D01*
X2550001D02*
X2720003D01*
X2550001Y3310998D02*
X2720003D01*
X2607502Y3356002D02*
X2662503D01*
X2635000Y3328499D02*
Y3383500D01*
X2167502Y2625925D02*
Y2805925D01*
X2077500Y2625925D02*
Y2805925D01*
X2167502D01*
X2077500Y2625925D02*
X2167502D01*
X2122503Y2688424D02*
Y2743425D01*
X2095000Y2715927D02*
X2150001D01*
X3011504Y2898502D02*
Y3197501D01*
X1912502Y2898502D02*
X3011504D01*
X1912502D02*
Y3197501D01*
X3011504D01*
X2295000Y3309998D02*
Y3400000D01*
X2465002Y3309998D02*
Y3400000D01*
X2295000D02*
X2465002D01*
X2295000Y3309998D02*
X2465002D01*
X2352501Y3355001D02*
X2407502D01*
X2379999Y3327498D02*
Y3382499D01*
X3302197Y1453608D02*
X3392199D01*
X3302197Y1283606D02*
X3392199D01*
Y1453608D01*
X3302197Y1283606D02*
Y1453608D01*
X3347195Y1341107D02*
Y1396108D01*
X3319697Y1368610D02*
X3374698D01*
X3576603Y1228503D02*
X3631604D01*
X3604101Y1201000D02*
Y1256001D01*
X3649105Y1138501D02*
Y1318501D01*
X3559102Y1138501D02*
Y1318501D01*
X3649105D01*
X3559102Y1138501D02*
X3649105D01*
X1869124Y1158882D02*
X3209121D01*
X1869124Y2498879D02*
X3209121D01*
Y1158882D02*
Y2498879D01*
X1869124Y1158882D02*
Y2498879D01*
X1445003Y2618996D02*
Y3159000D01*
X1735000Y2618996D02*
Y3159000D01*
X1445003Y2618996D02*
X1735000D01*
X1445003Y3159000D02*
X1735000D01*
X3914499Y3174504D02*
X4213498D01*
Y2075502D02*
Y3174504D01*
X3914499Y2075502D02*
X4213498D01*
X3914499D02*
Y3174504D01*
Y1867730D02*
X4213498D01*
Y768733D02*
Y1867730D01*
X3914499Y768733D02*
X4213498D01*
X3914499D02*
Y1867730D01*
X1590002Y1538003D02*
Y2368004D01*
X949998Y1538003D02*
X1590002D01*
X949998D02*
Y2368004D01*
X1590002D01*
X1022298Y2462649D02*
Y2612652D01*
X1292300Y2462649D02*
Y2612652D01*
X1022298D02*
X1292300D01*
X1022298Y2462649D02*
X1292300D01*
X1926000Y620908D02*
X2105999D01*
X1926000Y530905D02*
X2105999D01*
X1926000D02*
Y620908D01*
X2105999Y530905D02*
Y620908D01*
X1988504Y575904D02*
X2043500D01*
X2016002Y548406D02*
Y603407D01*
X3112956Y903618D02*
X3292956D01*
X3112956Y813615D02*
X3292956D01*
X3112956D02*
Y903618D01*
X3292956Y813615D02*
Y903618D01*
X3175456Y858614D02*
X3230457D01*
X3202954Y831116D02*
Y886117D01*
X2766617Y901113D02*
X2861618D01*
X2814120Y853615D02*
Y948611D01*
X2754115Y781113D02*
Y1021113D01*
X2874115Y781113D02*
Y1021113D01*
X2754115Y781113D02*
X2874115D01*
X2754115Y1021113D02*
X2874115D01*
%TF.MD5,31bee4072b0e66a5706c1907a614127e*%
M02*
