%TF.GenerationSoftware,Altium Limited,Altium Designer,25.3.3 (18)*%
G04 Layer_Color=0*
%FSLAX45Y45*%
%MOMM*%
%TF.SameCoordinates,F76437CA-266C-4EF0-AB4E-77791E4FF534*%
%TF.FilePolarity,Positive*%
%TF.FileFunction,Plated,1,2,PTH,Drill*%
%TF.Part,Single*%
G01*
G75*
%TA.AperFunction,OtherDrill,Pad Free-5 (43.075mm,35.56mm)*%
%ADD61C,3.50000*%
%TA.AperFunction,OtherDrill,Pad Free-6 (43.075mm,2.54mm)*%
%ADD62C,3.50000*%
%TA.AperFunction,ComponentDrill*%
%ADD63C,1.02000*%
%ADD64C,0.89000*%
%ADD65C,0.89000*%
%ADD66C,1.02000*%
%ADD67C,1.00000*%
%TA.AperFunction,ViaDrill,NotFilled*%
%ADD68C,0.25400*%
D61*
X4307498Y3556000D02*
D03*
D62*
Y254000D02*
D03*
D63*
X3149121D02*
D03*
X2895121D02*
D03*
X2641121D02*
D03*
X2387121D02*
D03*
X2133121D02*
D03*
X1879121D02*
D03*
X2843000Y3048002D02*
D03*
X2081000D02*
D03*
X2335000D02*
D03*
X2589000D02*
D03*
D64*
X469499Y1408996D02*
D03*
X269499D02*
D03*
D65*
X508000Y3243998D02*
D03*
Y3443998D02*
D03*
D66*
X4063998Y3006000D02*
D03*
Y2244000D02*
D03*
Y2498000D02*
D03*
Y2752000D02*
D03*
Y1699231D02*
D03*
Y937231D02*
D03*
Y1191231D02*
D03*
Y1445231D02*
D03*
D67*
X1495001Y2278002D02*
D03*
Y1628000D02*
D03*
X1044999D02*
D03*
Y2278002D02*
D03*
D68*
X3157955Y648745D02*
D03*
X655499Y2858159D02*
D03*
X2016002Y1087508D02*
D03*
X1672501Y1790996D02*
D03*
X937472Y2538117D02*
D03*
X3482196Y2346545D02*
D03*
X1219798Y3012175D02*
D03*
X762000Y858614D02*
D03*
X354498Y2076000D02*
D03*
X3693590Y2053002D02*
D03*
%TF.MD5,6f0e71eff705c32a660a02eb4c2b2672*%
M02*
