%TF.GenerationSoftware,Altium Limited,Altium Designer,25.3.3 (18)*%
G04 Layer_Color=255*
%FSLAX45Y45*%
%MOMM*%
%TF.SameCoordinates,F76437CA-266C-4EF0-AB4E-77791E4FF534*%
%TF.FilePolarity,Positive*%
%TF.FileFunction,Pads,Top*%
%TF.Part,Single*%
G01*
G75*
%TA.AperFunction,SMDPad,CuDef*%
G04:AMPARAMS|DCode=10|XSize=0.55mm|YSize=0.5mm|CornerRadius=0.0625mm|HoleSize=0mm|Usage=FLASHONLY|Rotation=90.000|XOffset=0mm|YOffset=0mm|HoleType=Round|Shape=RoundedRectangle|*
%AMROUNDEDRECTD10*
21,1,0.55000,0.37500,0,0,90.0*
21,1,0.42500,0.50000,0,0,90.0*
1,1,0.12500,0.18750,0.21250*
1,1,0.12500,0.18750,-0.21250*
1,1,0.12500,-0.18750,-0.21250*
1,1,0.12500,-0.18750,0.21250*
%
%ADD10ROUNDEDRECTD10*%
%ADD11R,0.57583X1.40712*%
G04:AMPARAMS|DCode=12|XSize=1.40712mm|YSize=0.57583mm|CornerRadius=0.28791mm|HoleSize=0mm|Usage=FLASHONLY|Rotation=90.000|XOffset=0mm|YOffset=0mm|HoleType=Round|Shape=RoundedRectangle|*
%AMROUNDEDRECTD12*
21,1,1.40712,0.00000,0,0,90.0*
21,1,0.83129,0.57583,0,0,90.0*
1,1,0.57583,0.00000,0.41565*
1,1,0.57583,0.00000,-0.41565*
1,1,0.57583,0.00000,-0.41565*
1,1,0.57583,0.00000,0.41565*
%
%ADD12ROUNDEDRECTD12*%
%ADD13R,1.20000X1.40000*%
G04:AMPARAMS|DCode=14|XSize=0.55mm|YSize=0.5mm|CornerRadius=0.0625mm|HoleSize=0mm|Usage=FLASHONLY|Rotation=180.000|XOffset=0mm|YOffset=0mm|HoleType=Round|Shape=RoundedRectangle|*
%AMROUNDEDRECTD14*
21,1,0.55000,0.37500,0,0,180.0*
21,1,0.42500,0.50000,0,0,180.0*
1,1,0.12500,-0.21250,0.18750*
1,1,0.12500,0.21250,0.18750*
1,1,0.12500,0.21250,-0.18750*
1,1,0.12500,-0.21250,-0.18750*
%
%ADD14ROUNDEDRECTD14*%
%ADD15O,0.30000X1.60000*%
%ADD16O,1.60000X0.30000*%
%ADD17R,1.85000X1.35000*%
%ADD18R,1.15776X1.36213*%
%ADD19R,0.95000X0.95000*%
G04:AMPARAMS|DCode=20|XSize=0.76mm|YSize=0.6604mm|CornerRadius=0.08255mm|HoleSize=0mm|Usage=FLASHONLY|Rotation=0.000|XOffset=0mm|YOffset=0mm|HoleType=Round|Shape=RoundedRectangle|*
%AMROUNDEDRECTD20*
21,1,0.76000,0.49530,0,0,0.0*
21,1,0.59490,0.66040,0,0,0.0*
1,1,0.16510,0.29745,-0.24765*
1,1,0.16510,-0.29745,-0.24765*
1,1,0.16510,-0.29745,0.24765*
1,1,0.16510,0.29745,0.24765*
%
%ADD20ROUNDEDRECTD20*%
%TA.AperFunction,ViaPad*%
%ADD23C,1.52400*%
%TA.AperFunction,SMDPad,CuDef*%
%ADD24C,1.01600*%
%TA.AperFunction,ComponentPad*%
%ADD25C,1.57000*%
%ADD26R,1.57000X1.57000*%
%ADD27C,1.39000*%
%ADD28R,1.39000X1.39000*%
%ADD29R,1.39000X1.39000*%
%ADD30C,1.55000*%
%ADD31R,1.55000X1.55000*%
%ADD32R,1.55000X1.55000*%
%ADD33R,1.50000X1.50000*%
%ADD34C,1.50000*%
D10*
X3392199Y2565148D02*
D03*
X3482196D02*
D03*
X1584225Y1147928D02*
D03*
X1674222D02*
D03*
X2590001Y3356002D02*
D03*
X2680003D02*
D03*
X2335000Y3355001D02*
D03*
X2425003D02*
D03*
X1971003Y575904D02*
D03*
X2061001D02*
D03*
X3157955Y858614D02*
D03*
X3247957D02*
D03*
D11*
X256997Y2321887D02*
D03*
D12*
X351998D02*
D03*
X446999D02*
D03*
Y2551996D02*
D03*
X256997D02*
D03*
D13*
X426481Y2855927D02*
D03*
X256479D02*
D03*
X426481Y1840999D02*
D03*
X256479D02*
D03*
D14*
X2122503Y2760926D02*
D03*
Y2670924D02*
D03*
X3347195Y1413608D02*
D03*
Y1323606D02*
D03*
X3604101Y1274000D02*
D03*
Y1183002D02*
D03*
D15*
X2164124Y2408882D02*
D03*
X2214122D02*
D03*
X2264124D02*
D03*
X2314121D02*
D03*
X2364124D02*
D03*
X2414121D02*
D03*
X2464124D02*
D03*
X2514121D02*
D03*
X2564123D02*
D03*
X2614121D02*
D03*
X2664123D02*
D03*
X2714121D02*
D03*
X2764123D02*
D03*
X2814120D02*
D03*
X2864123D02*
D03*
X2914120D02*
D03*
Y1248879D02*
D03*
X2864123D02*
D03*
X2814120D02*
D03*
X2764123D02*
D03*
X2714121D02*
D03*
X2664123D02*
D03*
X2614121D02*
D03*
X2564123D02*
D03*
X2514121D02*
D03*
X2464124D02*
D03*
X2414121D02*
D03*
X2364124D02*
D03*
X2314121D02*
D03*
X2264124D02*
D03*
X2214122D02*
D03*
X2164124D02*
D03*
D16*
X3119124Y2203878D02*
D03*
Y2153881D02*
D03*
Y2103879D02*
D03*
Y2053881D02*
D03*
Y2003879D02*
D03*
Y1953882D02*
D03*
Y1903879D02*
D03*
Y1853882D02*
D03*
Y1803879D02*
D03*
Y1753882D02*
D03*
Y1703879D02*
D03*
Y1653882D02*
D03*
Y1603880D02*
D03*
Y1553882D02*
D03*
Y1503880D02*
D03*
Y1453883D02*
D03*
X1959121D02*
D03*
Y1503880D02*
D03*
Y1553882D02*
D03*
Y1603880D02*
D03*
Y1653882D02*
D03*
Y1703879D02*
D03*
Y1753882D02*
D03*
Y1803879D02*
D03*
Y1853882D02*
D03*
Y1903879D02*
D03*
Y1953882D02*
D03*
Y2003879D02*
D03*
Y2053881D02*
D03*
Y2103879D02*
D03*
Y2153881D02*
D03*
Y2203878D02*
D03*
D17*
X1590002Y2736496D02*
D03*
Y3041499D02*
D03*
D18*
X1508787Y791232D02*
D03*
X1674222D02*
D03*
D19*
X1094800Y2537650D02*
D03*
X1219798D02*
D03*
D20*
X2814120Y831116D02*
D03*
Y971116D02*
D03*
D23*
X4307498Y3556000D02*
D03*
Y254000D02*
D03*
D24*
X256997D02*
D03*
X3751539Y269231D02*
D03*
X3827560Y3556000D02*
D03*
D25*
X3149121Y254000D02*
D03*
X2895121D02*
D03*
X2641121D02*
D03*
X2387121D02*
D03*
X2133121D02*
D03*
D26*
X1879121D02*
D03*
D27*
X469499Y1408996D02*
D03*
X508000Y3243998D02*
D03*
D28*
X269499Y1408996D02*
D03*
D29*
X508000Y3443998D02*
D03*
D30*
X2843000Y3048002D02*
D03*
X2335000D02*
D03*
X2589000D02*
D03*
X4063998Y3006000D02*
D03*
Y2498000D02*
D03*
Y2752000D02*
D03*
Y1699231D02*
D03*
Y1191231D02*
D03*
Y1445231D02*
D03*
D31*
X2081000Y3048002D02*
D03*
D32*
X4063998Y2244000D02*
D03*
Y937231D02*
D03*
D33*
X1495001Y2278002D02*
D03*
D34*
Y1628000D02*
D03*
X1044999D02*
D03*
Y2278002D02*
D03*
%TF.MD5,b9d75a866c5b651461605d1b890c450f*%
M02*
