M48
;Layer_Color=9474304
;FILE_FORMAT=4:4
METRIC,LZ
;TYPE=PLATED
T01F00S00C0.2540
T02F00S00C0.8900
T03F00S00C1.0000
T04F00S00C1.0200
T05F00S00C3.5000
%
T01
X000762Y00085861
X002016Y00108751
X0016725Y001791
X00093747Y00253812
X0006555Y00285816
X0003545Y002076
X0034822Y00234655
X00315795Y00064875
X00369359Y002053
X0012198Y00301217
T02
X0002695Y001409
X0004695
X000508Y003244
Y003444
T03
X001045Y001628
X001495
Y002278
X001045
T04
X00187912Y000254
X00213312
X00238712
X00264112
X00289512
X00314912
X004064Y00093723
Y00119123
Y00144523
Y00169923
Y002244
Y002498
Y002752
Y003006
X002843Y003048
X002589
X002335
X002081
T05
X0043075Y000254
Y003556
M30
